<?xml version="1.0" encoding="UTF-8"?>
<svg version="1.1" xmlns="http://www.w3.org/2000/svg" width="1024" height="1024">
<path d="M0 0 C337.92 0 675.84 0 1024 0 C1024 337.92 1024 675.84 1024 1024 C686.08 1024 348.16 1024 0 1024 C0 686.08 0 348.16 0 0 Z " fill="#3D1321" transform="translate(0,0)"/>
<path d="M0 0 C1.88504063 0.22803341 3.76957172 0.46156567 5.65039062 0.72213745 C9.6735732 1.19791516 13.70272152 1.23734444 17.75 1.31640625 C18.64871826 1.33718735 19.54743652 1.35796844 20.47338867 1.37937927 C23.31552236 1.44423053 26.15774033 1.50345696 29 1.5625 C30.93881044 1.60574665 32.87761268 1.64936279 34.81640625 1.69335938 C39.54418671 1.79984487 44.27205107 1.90128947 49 2 C48.49065918 2.95374512 47.98131836 3.90749023 47.45654297 4.89013672 C35.79869481 26.72761774 24.47759681 48.61291676 14.4375 71.25 C11.73523631 77.34039605 8.87390414 83.27364217 5.6875 89.125 C0.0657255 99.45670789 -4.69172647 110.18809229 -9.57177734 120.88378906 C-11.6206319 125.35414454 -13.70725989 129.80595972 -15.8125 134.25 C-16.17585449 135.01723389 -16.53920898 135.78446777 -16.91357422 136.57495117 C-19.08907835 141.14550116 -21.33491224 145.67333588 -23.625 150.1875 C-25.97647617 154.84801861 -28.15484956 159.55225393 -30.21875 164.34765625 C-33.9896354 173.03497392 -37.92166698 181.64454225 -41.875 190.25 C-43.28996302 193.33422308 -44.70388536 196.41892177 -46.1171875 199.50390625 C-46.45828552 200.24832474 -46.79938354 200.99274323 -47.15081787 201.75971985 C-49.80252479 207.55338323 -52.40895882 213.36646642 -55 219.1875 C-57.86908105 225.62217104 -60.92634849 231.93229591 -64.12304688 238.20996094 C-66.73319463 243.37034288 -69.07180829 248.62035715 -71.3581543 253.93066406 C-75.76109173 264.13165212 -80.53753738 274.15396981 -85.5625 284.0625 C-94.88113661 302.50089257 -103.51907863 321.32382484 -111.6418457 340.31591797 C-114.23709539 346.34988712 -117.03777811 352.22964713 -120.02856445 358.07592773 C-125.60577505 369.03191675 -130.60778646 380.2932977 -135.0625 391.75 C-137.93103066 399.0596167 -141.37135514 405.98326289 -144.95898438 412.95751953 C-146.01755607 415.03444515 -147.05130857 417.12205265 -148.078125 419.21484375 C-157.22662557 437.85760473 -166.4070148 453.9415606 -187 461 C-204.7555176 466.08157236 -222.30185204 465.15436781 -238.9375 456.75 C-254.45781092 447.756568 -261.40552481 431.72378348 -268.8125 416.125 C-269.51977976 414.64959217 -270.22771611 413.17449893 -270.9362793 411.69970703 C-272.66250041 408.10272812 -274.38101043 404.50214508 -276.09570312 400.8996582 C-277.75222041 397.41980912 -279.41442915 393.94267715 -281.07568359 390.46508789 C-281.91027465 388.71732309 -282.74391155 386.96910239 -283.57666016 385.22045898 C-286.46453622 379.16899325 -289.39125237 373.13724045 -292.3359375 367.11328125 C-292.72608032 366.31509979 -293.11622314 365.51691833 -293.51818848 364.69454956 C-293.91598511 363.88075836 -294.31378174 363.06696716 -294.72363281 362.22851562 C-303.43283466 344.41144212 -311.98544756 326.52980932 -320.38935852 308.56686401 C-323.46955801 301.98706743 -326.5926035 295.42789348 -329.73266602 288.87646484 C-332.3213907 283.46449269 -334.83918534 278.02165225 -337.34863281 272.57250977 C-340.39010312 265.99269974 -343.47631642 259.43392844 -346.5625 252.875 C-346.90937866 252.13733398 -347.25625732 251.39966797 -347.61364746 250.63964844 C-352.27332693 240.73390527 -356.98069451 230.85350322 -361.75 221 C-365.96525277 212.29015879 -370.08740211 203.54361334 -374.125 194.75 C-380.47816078 180.91415887 -387.00649964 167.16714578 -393.69024658 153.48788452 C-395.29599397 150.20147143 -396.89883858 146.91364964 -398.5 143.625 C-398.82031189 142.96721558 -399.14062378 142.30943115 -399.47064209 141.63171387 C-404.31701467 131.66103614 -408.88757496 121.59725172 -413.29785156 111.42480469 C-415.92728105 105.37849148 -418.67500476 99.43880682 -421.67285156 93.56762695 C-434.8249002 67.79364441 -447.16392894 41.50896433 -458.75 15 C-459.16870361 14.04416016 -459.58740723 13.08832031 -460.01879883 12.10351562 C-460.39931396 11.22373047 -460.7798291 10.34394531 -461.171875 9.4375 C-461.5028418 8.67308594 -461.83380859 7.90867187 -462.17480469 7.12109375 C-463 5 -463 5 -464 1 C-448.49 1 -432.98 1 -417 1 C-412.28115492 10.43769015 -407.68642852 19.72570014 -403.5 29.375 C-398.94530471 39.74248002 -394.21958758 50.01521648 -389.375 60.25 C-382.59225391 74.58210619 -375.91583501 88.96066086 -369.29052734 103.36621094 C-365.78062049 110.99524995 -362.25701312 118.61738155 -358.6875 126.21875 C-358.20827087 127.2412661 -358.20827087 127.2412661 -357.71936035 128.28443909 C-355.71585989 132.53956756 -353.6339991 136.74625286 -351.5 140.9375 C-349.02766298 145.83812349 -346.7492822 150.78161665 -344.5625 155.8125 C-340.65795161 164.76317238 -336.39942372 173.53456902 -332.125 182.3125 C-331.77296509 183.03566406 -331.42093018 183.75882813 -331.05822754 184.50390625 C-329.6597003 187.37629686 -328.26077689 190.24849393 -326.86117554 193.12036133 C-319.78632106 207.64237441 -312.94577925 222.26713288 -306.16943359 236.93041992 C-302.02070439 245.87585308 -297.75238283 254.75869508 -293.4375 263.625 C-287.31032763 276.21905103 -281.38728045 288.89619958 -275.55078125 301.62792969 C-272.70108521 307.82440351 -269.82102843 314.00671186 -266.9375 320.1875 C-266.64061279 320.8240451 -266.34372559 321.46059021 -266.0378418 322.11642456 C-261.78391772 331.23228688 -257.47014477 340.31805878 -253.11083984 349.3840332 C-248.96854352 358.01873232 -244.94966405 366.70918701 -240.93237305 375.40258789 C-236.6098102 384.73655533 -232.18301879 394.01611052 -227.69360352 403.27099609 C-227.22237061 404.24504395 -226.7511377 405.2190918 -226.265625 406.22265625 C-225.85086914 407.07609619 -225.43611328 407.92953613 -225.00878906 408.80883789 C-224 411 -224 411 -223 414 C-213.97922995 417.9243642 -204.33291107 416.64946976 -195.33984375 413.36328125 C-189.85799527 410.1693495 -187.605421 404.53724458 -185.0625 399 C-184.68552979 398.19183838 -184.30855957 397.38367676 -183.92016602 396.55102539 C-176.37762876 380.28879189 -169.14940843 363.87691317 -161.89306641 347.4855957 C-160.10719738 343.46055068 -158.29682154 339.44747497 -156.46875 335.44140625 C-156.02813232 334.47581787 -155.58751465 333.51022949 -155.13354492 332.51538086 C-154.28666644 330.66245268 -153.43802931 328.81032667 -152.5871582 326.95922852 C-150.48206791 322.3564712 -148.45783409 317.73360838 -146.52734375 313.0546875 C-144.07988839 307.13307188 -141.44353523 301.31305418 -138.75 295.5 C-135.25150719 287.91324147 -131.78379049 280.31497092 -128.375 272.6875 C-125.2220849 265.6489501 -121.97397045 258.66236514 -118.65356445 251.70141602 C-114.95009079 243.927843 -111.33364375 236.11440768 -107.71798706 228.29971313 C-104.13934372 220.56750705 -100.509316 212.8637993 -96.8125 205.1875 C-92.78910651 196.82103269 -89.04110621 188.34975329 -85.39770508 179.8112793 C-83.38737958 175.11297638 -81.292725 170.50492667 -78.97045898 165.953125 C-77.59395025 163.18279295 -76.36397869 160.35399941 -75.12060547 157.52197266 C-73.83057235 154.6186955 -72.49829001 151.73689032 -71.16015625 148.85546875 C-70.65419922 147.76556641 -70.14824219 146.67566406 -69.62695312 145.55273438 C-68.58915813 143.32037386 -67.55010799 141.08859638 -66.50976562 138.85742188 C-63.56232081 132.50187696 -60.75821092 126.11056894 -58.09204102 119.63208008 C-56.77873171 116.46669049 -55.38251153 113.35737856 -53.9375 110.25 C-53.4321875 109.16332031 -52.926875 108.07664062 -52.40625 106.95703125 C-51.2836783 104.59651243 -50.13119425 102.26231582 -48.9375 99.9375 C-47.39505465 96.91505648 -46.12534479 93.84167988 -44.875 90.6875 C-42.59084675 85.09061518 -39.85377293 79.81979645 -37 74.5 C-33.73866443 68.41980664 -30.69817847 62.38992817 -28.23046875 55.93359375 C-26.76490614 52.43950638 -25.06733086 49.09497104 -23.3581543 45.71459961 C-21.56828377 42.13711077 -19.86395487 38.52179602 -18.15576172 34.90478516 C-14.05411507 26.22587381 -9.85029965 17.61800052 -5.375 9.125 C-4.94936768 8.31683838 -4.52373535 7.50867676 -4.08520508 6.67602539 C-1.13993437 1.13993437 -1.13993437 1.13993437 0 0 Z " fill="#E5E8E1" transform="translate(716,262)"/>
<path d="M0 0 C16.83 0 33.66 0 51 0 C53.97 6.93 56.94 13.86 60 21 C62.84892247 27.30499235 65.71460047 33.5986511 68.625 39.875 C69.00785156 40.70329315 69.39070313 41.5315863 69.78515625 42.38497925 C75.37669129 54.47935536 81.09597681 66.50600698 86.93609619 78.4821167 C91.66970598 88.18922254 96.24255764 97.95572702 100.65625 107.8125 C106.16271374 120.05921572 111.99157153 132.14058551 117.90362549 144.19540405 C124.99238415 158.65932693 131.93246695 173.17617532 138.67578125 187.8046875 C142.31573775 195.69929887 145.99691233 203.57431041 149.69769287 211.44058228 C150.42546057 212.98901613 151.15180354 214.53812065 151.87652588 216.08798218 C156.09272364 225.10259329 160.48682788 233.97094133 165.24487305 242.71264648 C170.13567301 251.87311685 174.05080118 261.46810426 178.0324707 271.04614258 C180.34432981 276.56389789 182.88352159 281.90749841 185.625 287.2265625 C187.58353714 291.17702094 189.25044921 295.22833208 190.8984375 299.31640625 C191.79895926 301.51023054 192.77825381 303.61867958 193.8125 305.75 C196.2102776 312.31233871 195.17507458 317.59995803 192.5 323.875 C192.10059204 324.82330688 192.10059204 324.82330688 191.69311523 325.79077148 C190.81139799 327.86778954 189.90706352 329.93393712 189 332 C188.35542812 333.49347205 187.71089773 334.986962 187.06640625 336.48046875 C183.00548334 345.80864756 178.65427142 354.95325992 174 364 C173.34 364 172.68 364 172 364 C171.764021 363.47269287 171.52804199 362.94538574 171.28491211 362.40209961 C164.95678161 348.2722904 158.51673764 334.21120379 151.79321289 320.26464844 C144.68885445 305.52318896 137.65246343 290.73825601 131.1328125 275.7265625 C126.29789215 264.60126402 121.01018999 253.71605237 115.68579102 242.81906128 C110.26320392 231.71843926 104.9731662 220.57080752 99.80932617 209.34692383 C95.85661585 200.78036934 91.76192526 192.29086668 87.625 183.8125 C81.98807615 172.25605957 76.58410764 160.60891523 71.29754639 148.8883667 C66.95761546 139.26704131 62.52049883 129.70490288 57.92749023 120.20092773 C54.6294586 113.36264313 51.4544226 106.473757 48.3125 99.5625 C45.07425287 92.44567757 41.75444636 85.3987262 38.19848633 78.43579102 C34.79194489 71.70571103 31.65846583 64.84873531 28.5 58 C24.16001187 48.59605084 19.73952062 39.25625576 15.03173828 30.03125 C12.91571523 25.86529832 10.83686866 21.68060829 8.75 17.5 C7.93241934 15.8645195 7.11471618 14.22910024 6.296875 12.59375 C4.19791667 8.39583333 2.09895833 4.19791667 0 0 Z " fill="#EEF0EA" transform="translate(335,262)"/>
<path d="M0 0 C24.255 0.495 24.255 0.495 49 1 C46.36 6.28 43.72 11.56 41 17 C39.65133846 19.82844294 38.31048455 22.65454976 37 25.5 C34.55516989 30.80845056 31.9824627 36.04512745 29.35546875 41.265625 C24.96736484 49.99903089 20.74492181 58.80851519 16.5534668 67.63769531 C15.3064957 70.26263938 14.05471925 72.88525677 12.80273438 75.5078125 C9.03921945 83.41472789 5.37732162 91.31569621 2.08520508 99.43334961 C1.05519945 101.86944617 -0.07777727 104.20046997 -1.2890625 106.55078125 C-5.38832576 114.57170503 -8.808902 122.92028284 -12.375 131.1875 C-18.58446356 145.57184543 -24.99264953 159.81604712 -31.81494141 173.92114258 C-35.30133591 181.14029198 -38.64752724 188.36795406 -41.625 195.8125 C-44.02423459 201.79464701 -46.67988945 207.55651485 -49.60473633 213.29833984 C-60.74117852 235.1633151 -71.43901381 257.39669649 -80.25 280.3125 C-82.85226562 286.99317022 -86.18201661 292.93415064 -90 299 C-90.99 298.67 -91.98 298.34 -93 298 C-92.9175 296.989375 -92.835 295.97875 -92.75 294.9375 C-92.98433183 291.24677368 -93.17639177 290.29662586 -95 287.375 C-97.03453159 283.94172795 -97.21133919 282.8041055 -97 279 C-97.99 277.515 -97.99 277.515 -99 276 C-99.38499891 274.34450469 -99.72793135 272.6777567 -100 271 C-100.66 271 -101.32 271 -102 271 C-105.03340145 266.95546473 -105.93178561 262.84804991 -107 258 C-107.99 258.33 -108.98 258.66 -110 259 C-110.13277344 258.25234375 -110.26554688 257.5046875 -110.40234375 256.734375 C-110.57894531 255.74953125 -110.75554688 254.7646875 -110.9375 253.75 C-111.11152344 252.77546875 -111.28554688 251.8009375 -111.46484375 250.796875 C-111.90688205 248.12282792 -111.90688205 248.12282792 -112.65136719 246.12060547 C-113.12033102 243.26807054 -112.3493139 241.87122702 -111.11328125 239.2734375 C-110.6757251 238.33773926 -110.23816895 237.40204102 -109.78735352 236.43798828 C-109.30065186 235.42720215 -108.8139502 234.41641602 -108.3125 233.375 C-107.28633624 231.19276574 -106.26029882 229.01047207 -105.234375 226.828125 C-104.69876953 225.69955078 -104.16316406 224.57097656 -103.61132812 223.40820312 C-101.0541151 217.99931012 -98.56168359 212.56087908 -96.0625 207.125 C-95.05910042 204.95028699 -94.05519053 202.77580936 -93.05078125 200.6015625 C-92.5501416 199.5177832 -92.04950195 198.43400391 -91.53369141 197.31738281 C-89.97587935 193.94782691 -88.41586229 190.57929864 -86.85546875 187.2109375 C-79.69708942 171.74883815 -72.55625133 156.29456846 -66.08203125 140.53125 C-64.83437415 137.61254315 -63.42092297 134.81078262 -61.96484375 131.9921875 C-60.45812235 128.88114332 -59.25601571 125.65604027 -58 122.4375 C-56.81812235 119.55667322 -55.42702677 116.82736437 -54 114.0625 C-52.87764202 111.74763666 -51.93517939 109.39639719 -51 107 C-49.51992005 103.21307669 -47.86067963 99.60842882 -46 95.99609375 C-44.92878924 93.85785664 -43.95873207 91.69085259 -43 89.5 C-41.74757538 86.63801406 -40.43043475 83.83955497 -39 81.0625 C-37.51110825 78.13685668 -36.25111957 75.18486002 -35.0625 72.125 C-33.02291632 66.91006447 -30.55538167 61.97705151 -28 57 C-27.01324548 55.03365097 -26.03075715 53.06519895 -25.04833984 51.09667969 C-24.04860971 49.09721942 -23.04295176 47.10087358 -22.03515625 45.10546875 C-18.62511606 38.33992175 -15.30207726 31.56329037 -12.2109375 24.64453125 C-9.94474692 19.69546343 -7.4551545 14.85719268 -5 10 C-3.35 6.7 -1.7 3.4 0 0 Z " fill="#F1F3EC" transform="translate(627,263)"/>
<path d="M0 0 C16.5 0 33 0 50 0 C57.84615385 15.69230769 57.84615385 15.69230769 60.4375 21.75 C61.02565455 23.11084446 61.61421151 24.47151505 62.203125 25.83203125 C62.49896484 26.51861816 62.79480469 27.20520508 63.09960938 27.91259766 C69.66639585 43.13657389 76.76448544 58.08309499 84 73 C84.76183594 71.25976562 84.76183594 71.25976562 85.5390625 69.484375 C89.0648346 61.46859792 92.66442773 53.533431 96.62890625 45.72265625 C99.86303749 39.30046401 102.76882069 32.92552216 104.9375 26.0625 C106.97807249 19.68363723 109.89309845 13.91554056 113 8 C113.51433594 6.93523437 114.02867187 5.87046875 114.55859375 4.7734375 C116 2 116 2 118 0 C120.06277466 -0.24050903 120.06277466 -0.24050903 122.63330078 -0.22705078 C123.59414581 -0.22689972 124.55499084 -0.22674866 125.54495239 -0.22659302 C126.58457123 -0.21627045 127.62419006 -0.20594788 128.6953125 -0.1953125 C129.75789276 -0.1924826 130.82047302 -0.18965271 131.91525269 -0.18673706 C135.31861499 -0.17551639 138.72171686 -0.15040837 142.125 -0.125 C144.42838162 -0.11497264 146.73176736 -0.10584637 149.03515625 -0.09765625 C154.69019345 -0.07557093 160.34507813 -0.04207489 166 0 C164.18385827 5.83256964 162.06741823 11.3142464 159.34765625 16.78125 C159.00625107 17.47963989 158.66484589 18.17802979 158.31309509 18.89758301 C157.23484494 21.10102732 156.14908857 23.30065752 155.0625 25.5 C153.63429002 28.40506165 152.20909096 31.31159068 150.78515625 34.21875 C150.44239151 34.91783478 150.09962677 35.61691956 149.74647522 36.33718872 C147.76972137 40.38182714 145.87204484 44.44647722 144.07641602 48.57519531 C141.30927472 54.80863767 138.34584832 60.956421 135.4375 67.125 C134.7186467 68.65184515 133.99981553 70.17870072 133.28100586 71.70556641 C129.24223019 80.27860187 125.17102347 88.83512983 121.0625 97.375 C115.80936376 108.30261576 110.81506894 119.34035773 105.92700195 130.43554688 C105.57726318 131.22767578 105.22752441 132.01980469 104.8671875 132.8359375 C104.55507324 133.54540527 104.24295898 134.25487305 103.92138672 134.98583984 C103.02635246 136.94239327 102.06443478 138.84635064 101.0625 140.75 C99.37348795 144.06933257 98.0465854 147.44669316 96.75 150.9375 C94.65725791 156.48554833 92.31511826 161.87457041 89.8125 167.25 C89.46735352 168.00144287 89.12220703 168.75288574 88.76660156 169.52709961 C86.24174521 174.8791274 86.24174521 174.8791274 84 176 C75.35566463 160.3057289 75.35566463 160.3057289 72.1875 152 C69.06956771 143.82856509 65.25243537 136.02992114 61.40112305 128.18164062 C58.42280424 122.08431032 55.68707716 115.9435103 53.11499023 109.66430664 C51.73710932 106.37181388 50.19651353 103.23618447 48.5625 100.0625 C44.68920572 92.4452128 40.95899618 84.76073042 37.25 77.0625 C36.79880798 76.12638382 36.79880798 76.12638382 36.33850098 75.1713562 C34.22332305 70.78203067 32.11116193 66.39125827 30 62 C29.46262207 60.88254395 28.92524414 59.76508789 28.37158203 58.61376953 C23.92094429 49.35616356 19.47455751 40.09656052 15.0546875 30.82421875 C14.57281982 29.81407715 14.09095215 28.80393555 13.59448242 27.76318359 C12.70022584 25.88777408 11.80703663 24.01185496 10.9152832 22.13525391 C7.37180663 14.70428737 3.68405399 7.36810798 0 0 Z " fill="#F6F7F1" transform="translate(422,263)"/>
<path d="M0 0 C1.854872 2.41596979 3.1198143 5.07561108 4.4375 7.8125 C4.82655518 8.5864209 5.21561035 9.3603418 5.61645508 10.15771484 C6.39813672 11.71655132 7.17258642 13.27903707 7.93945312 14.84521484 C8.83556123 16.66589857 9.76563393 18.46980642 10.703125 20.26953125 C13.42551591 25.50655166 15.75396692 30.8076107 17.875 36.3125 C19.85544605 41.39536153 22.0474569 46.09297959 24.703125 50.87109375 C28.87897445 58.53539607 32.40464403 66.42443188 35.86953735 74.42974854 C40.70633842 85.59137129 45.60943143 96.60616086 51.49267578 107.26269531 C55.44124433 114.53889482 58.47174763 122.16083403 61.60791016 129.81347656 C65.55097128 139.27737494 70.20124301 148.26605115 75.01635742 157.31005859 C78.43888385 163.80065064 81.48279281 170.25742946 84.0625 177.125 C88.26612143 188.30932719 93.91621847 198.69085118 99.52685547 209.22070312 C101.41919384 212.79086886 103.25897338 216.38428522 105.0625 220 C105.51737793 220.90999756 105.51737793 220.90999756 105.98144531 221.83837891 C107.9420038 225.79092159 109.84370506 229.76954205 111.73046875 233.7578125 C117.94989622 246.88714749 124.52989242 259.70910795 131.57275391 272.4140625 C137.07617719 282.38536928 142.44235334 292.42571436 147.125 302.8125 C147.42059814 303.4523584 147.71619629 304.0922168 148.02075195 304.75146484 C149.72364373 308.65017708 150.29877347 311.75871569 150 316 C148.59308393 316.72750788 147.17393978 317.43140353 145.75 318.125 C144.96109375 318.51945312 144.1721875 318.91390625 143.359375 319.3203125 C141 320 141 320 139.02124023 319.27001953 C136.75467943 317.84585607 135.75110667 316.59555715 134.30078125 314.359375 C133.57785889 313.25988525 133.57785889 313.25988525 132.84033203 312.13818359 C132.08405518 310.95603271 132.08405518 310.95603271 131.3125 309.75 C130.77995605 308.93225098 130.24741211 308.11450195 129.69873047 307.27197266 C128.62112774 305.6145957 127.54751293 303.9546186 126.47802734 302.29199219 C125.23500693 300.36442766 123.97753779 298.44854059 122.70703125 296.5390625 C117.17261655 288.12841352 112.1293149 279.45201293 107.08691406 270.74023438 C104.09082709 265.5665037 101.06570711 260.43083861 97.875 255.375 C89.37197469 241.70812026 81.99435907 227.31139978 74.91796875 212.86376953 C73.70007097 210.39104836 72.45562969 207.93209993 71.2121582 205.47216797 C69.85793112 202.78433131 68.52013237 200.08850723 67.18505859 197.39111328 C66.33425624 195.6744346 65.4800078 193.95946221 64.62353516 192.24560547 C58.40253752 179.76048013 52.59526364 167.38093332 48.38110352 154.0546875 C46.16074194 147.53602821 43.19472534 143.57166498 38.09790039 138.93603516 C32.17878415 133.47361321 30.68541695 128.12358085 29.3581543 120.31152344 C27.82813645 112.03283771 24.41810914 104.50301899 21.16650391 96.77783203 C19.11336325 91.88862434 17.11125326 86.97921448 15.125 82.0625 C14.70895508 81.03318359 14.29291016 80.00386719 13.86425781 78.94335938 C10.06549774 69.41298352 6.71817289 59.74220595 3.48681641 50.00805664 C1.37981557 43.72112366 -0.9618267 37.71989723 -3.77954102 31.71972656 C-5.92336559 26.94232993 -7.60931766 22.01045478 -9.3125 17.0625 C-9.67150391 16.04865234 -10.03050781 15.03480469 -10.40039062 13.99023438 C-10.73876953 13.01505859 -11.07714844 12.03988281 -11.42578125 11.03515625 C-11.88078003 9.72623413 -11.88078003 9.72623413 -12.3449707 8.39086914 C-13 6 -13 6 -13 2 C-11.77773359 1.46317332 -10.54671915 0.94624468 -9.3125 0.4375 C-8.62800781 0.14746094 -7.94351563 -0.14257812 -7.23828125 -0.44140625 C-4.23596613 -1.19067512 -2.87650568 -1.23662861 0 0 Z " fill="#EFF0EC" transform="translate(262,363)"/>
<path d="M0 0 C0.495 0.99 0.495 0.99 1 2 C1.66 2 2.32 2 3 2 C3 3.32 3 4.64 3 6 C6.3 6.33 9.6 6.66 13 7 C13.41419703 12.95505924 12.11173648 16.97763187 9.6875 22.375 C9.03699661 23.88583093 8.3885326 25.3975417 7.7421875 26.91015625 C7.43506836 27.62316895 7.12794922 28.33618164 6.81152344 29.07080078 C5.30901395 32.64265096 4.14550277 36.30223668 3 40 C0.15142021 48.93475247 -3.18202417 57.52550691 -6.92382812 66.12255859 C-10.56684693 74.5011454 -14.0961496 82.79145197 -16.6875 91.5625 C-18.98349825 99.32099741 -22.07963571 106.10631718 -26.5 112.875 C-29.16064273 116.9944375 -30.86032998 121.37590753 -32.68359375 125.9140625 C-35.05574572 131.47489353 -38.08527028 136.67149969 -41.09643555 141.90600586 C-44.6593705 148.18666172 -47.74219762 154.6549312 -50.8125 161.1875 C-54.64136278 169.2573031 -58.60339166 177.08989493 -63.15234375 184.77734375 C-65.18904681 188.3297328 -67.01227064 191.94915554 -68.8125 195.625 C-73.15499508 204.46507927 -77.89589382 213.07149126 -82.70117188 221.66699219 C-83.89156623 223.80522685 -85.06548374 225.95152385 -86.234375 228.1015625 C-89.88259911 234.74737755 -93.70402668 240.55875061 -99 246 C-100.11375 247.3921875 -100.11375 247.3921875 -101.25 248.8125 C-107.23116987 253.57024876 -114.57097341 254.17512594 -122 254 C-117.52105142 242.33457123 -112.749199 230.99407042 -106.98681641 219.90478516 C-105.35915237 216.76301504 -103.77196646 213.6012235 -102.1875 210.4375 C-101.86378418 209.79304932 -101.54006836 209.14859863 -101.20654297 208.48461914 C-98.26194674 202.5918858 -95.44623965 196.64001642 -92.625 190.6875 C-89.28131263 183.63721775 -85.82633451 176.68146725 -82.125 169.8125 C-77.25859221 160.76113862 -72.96715611 151.45786687 -68.68066406 142.12329102 C-65.84113761 135.94618619 -62.97021779 129.80314115 -59.875 123.75 C-56.55565087 117.25335788 -53.51780883 110.64153748 -50.5 104 C-46.20512953 94.55378241 -41.72327141 85.23816319 -37 76 C-31.30601399 64.85745841 -25.96651138 53.56824145 -20.7434082 42.19824219 C-17.72197001 35.63645357 -14.61271072 29.13679077 -11.33862305 22.69702148 C-9.9657979 19.93109054 -8.68972013 17.13483734 -7.4375 14.3125 C-5.22822223 9.37748992 -2.71256285 4.67484236 0 0 Z " fill="#DCDFD8" transform="translate(739,394)"/>
<path d="M0 0 C0.84827362 0.00444122 1.69654724 0.00888245 2.57052612 0.01345825 C3.53137115 0.01360931 4.49221619 0.01376038 5.48217773 0.01391602 C6.52179657 0.02423859 7.56141541 0.03456116 8.63253784 0.04519653 C9.6951181 0.04802643 10.75769836 0.05085632 11.85247803 0.05377197 C15.25584033 0.06499264 18.6589422 0.09010066 22.06222534 0.11550903 C24.36560697 0.12553639 26.6689927 0.13466266 28.97238159 0.14285278 C34.6274188 0.1649381 40.28230347 0.19843415 45.93722534 0.24050903 C44.12108361 6.07307867 42.00464357 11.55475543 39.28488159 17.02175903 C38.94347641 17.72014893 38.60207123 18.41853882 38.25032043 19.13809204 C37.17207029 21.34153635 36.08631391 23.54116655 34.99972534 25.74050903 C33.57151537 28.64557068 32.14630911 31.55209619 30.72238159 34.45925903 C30.3794809 35.15866104 30.0365802 35.85806305 29.68328857 36.57865906 C27.71166496 40.61298294 25.81789568 44.6668052 24.02682495 48.78494263 C21.52570399 54.4215715 18.86474498 59.98748649 16.23898315 65.56692505 C15.20139148 67.77289118 14.16688909 69.98028766 13.13253784 72.18777466 C11.43049421 75.81587629 9.70523742 79.43244592 7.97457886 83.04696655 C6.91054034 85.29693597 5.87913608 87.56014208 4.84933472 89.82595825 C4.16583133 91.28610371 3.48161324 92.74591488 2.79660034 94.20535278 C2.49723572 94.88433121 2.19787109 95.56330963 1.88943481 96.26286316 C0.22534083 99.74298698 -0.72143344 101.08889039 -4.3039856 102.6802063 C-5.21438599 102.8651062 -6.12478638 103.0500061 -7.06277466 103.24050903 C-8.05277466 108.19050903 -8.05277466 108.19050903 -9.06277466 113.24050903 C-9.72277466 113.24050903 -10.38277466 113.24050903 -11.06277466 113.24050903 C-11.06277466 114.56050903 -11.06277466 115.88050903 -11.06277466 117.24050903 C-12.38277466 116.58050903 -13.70277466 115.92050903 -15.06277466 115.24050903 C-14.77838514 113.34357043 -14.48493674 111.44798876 -14.18777466 109.55300903 C-14.02535278 108.49726685 -13.86293091 107.44152466 -13.69558716 106.35379028 C-13.06277466 103.24050903 -13.06277466 103.24050903 -11.97293091 100.59207153 C-10.60538522 97.05875608 -11.43936965 93.86050859 -12.06277466 90.24050903 C-12.16589966 89.12675903 -12.26902466 88.01300903 -12.37527466 86.86550903 C-12.79114673 84.09171922 -12.79114673 84.09171922 -15.12527466 82.86550903 C-15.76464966 82.65925903 -16.40402466 82.45300903 -17.06277466 82.24050903 C-17.06277466 81.58050903 -17.06277466 80.92050903 -17.06277466 80.24050903 C-17.72277466 80.24050903 -18.38277466 80.24050903 -19.06277466 80.24050903 C-19.17234497 79.6746106 -19.28191528 79.10871216 -19.39480591 78.52566528 C-19.5533606 77.79218872 -19.71191528 77.05871216 -19.87527466 76.30300903 C-20.02609497 75.5721106 -20.17691528 74.84121216 -20.33230591 74.08816528 C-20.69388794 73.17357544 -20.69388794 73.17357544 -21.06277466 72.24050903 C-22.05277466 71.91050903 -23.04277466 71.58050903 -24.06277466 71.24050903 C-24.06277466 68.93050903 -24.06277466 66.62050903 -24.06277466 64.24050903 C-24.72277466 64.24050903 -25.38277466 64.24050903 -26.06277466 64.24050903 C-26.06277466 63.58050903 -26.06277466 62.92050903 -26.06277466 62.24050903 C-27.05277466 61.91050903 -28.04277466 61.58050903 -29.06277466 61.24050903 C-28.51265241 56.80678568 -27.39855211 53.49340819 -25.31277466 49.55300903 C-21.39587349 41.95347113 -17.70609544 34.47029784 -15.12527466 26.30300903 C-13.08470217 19.92414626 -10.16967621 14.15604959 -7.06277466 8.24050903 C-6.54843872 7.17574341 -6.03410278 6.11097778 -5.50418091 5.01394653 C-3.08529948 0.35973023 -3.08529948 0.35973023 0 0 Z " fill="#F9F8F2" transform="translate(542.0627746582031,262.7594909667969)"/>
<path d="M0 0 C2 1.375 2 1.375 4 3 C4 3.66 4 4.32 4 5 C4.66 5 5.32 5 6 5 C6.33 7.31 6.66 9.62 7 12 C7.99 12.33 8.98 12.66 10 13 C10.33 15.64 10.66 18.28 11 21 C11.66 21 12.32 21 13 21 C14.625 22.5 14.625 22.5 16 24 C16.66 23.67 17.32 23.34 18 23 C18.06058594 23.88042969 18.12117187 24.76085937 18.18359375 25.66796875 C18.30927734 27.41013672 18.30927734 27.41013672 18.4375 29.1875 C18.51871094 30.33605469 18.59992187 31.48460937 18.68359375 32.66796875 C18.91363953 35.92505365 18.91363953 35.92505365 19.66015625 38.73828125 C20 41 20 41 18 44 C17.61806674 46.11171939 17.61806674 46.11171939 17.5 48.375 C17.18250137 51.91366655 16.56428861 54.76713688 15 58 C12.92288997 55.37877985 11.37203572 52.90270224 10.0546875 49.83203125 C9.70365967 49.02967041 9.35263184 48.22730957 8.9909668 47.40063477 C8.62269775 46.54655029 8.25442871 45.69246582 7.875 44.8125 C5.5798349 39.49862563 3.28138268 34.31148152 0.26953125 29.359375 C-6.12241678 18.80657487 -6.12241678 18.80657487 -5.7421875 13.1953125 C-4.75239547 9.90333753 -3.59758108 7.03765416 -2 4 C-1.61457031 3.22269531 -1.22914063 2.44539063 -0.83203125 1.64453125 C-0.55746094 1.10183594 -0.28289062 0.55914062 0 0 Z " fill="#BCB2A7" transform="translate(512,322)"/>
<path d="M0 0 C0.99 0.66 1.98 1.32 3 2 C3.51171875 4.6015625 3.51171875 4.6015625 3.6875 7.625 C3.78611328 9.12933594 3.78611328 9.12933594 3.88671875 10.6640625 C3.92410156 11.43492187 3.96148438 12.20578125 4 13 C5.32 12.01 6.64 11.02 8 10 C8.25523437 11.24716797 8.25523437 11.24716797 8.515625 12.51953125 C8.75796875 13.60621094 9.0003125 14.69289063 9.25 15.8125 C9.48203125 16.89144531 9.7140625 17.97039063 9.953125 19.08203125 C11.13046156 22.36363726 12.16555467 23.12949559 15 25 C15.625 27.5625 15.625 27.5625 16 30 C16.66 30.66 17.32 31.32 18 32 C17.95875 32.886875 17.9175 33.77375 17.875 34.6875 C18.01400145 38.37103847 19.1741791 40.13813145 21.1171875 43.1953125 C22.5170158 46.0569084 22.12242584 48.87814108 22 52 C22.66 52.66 23.32 53.32 24 54 C22.02 58.29 20.04 62.58 18 67 C17.67 67 17.34 67 17 67 C16.84144531 66.40574219 16.68289063 65.81148437 16.51953125 65.19921875 C14.90986337 59.48089582 12.84668595 54.21789167 10.31640625 48.84765625 C8.97671127 45.9496217 7.76210231 43.02100474 6.5625 40.0625 C4.84177906 35.87197456 2.94566057 31.8413408 0.875 27.8125 C-5.81629021 14.46467953 -5.81629021 14.46467953 -3.8125 8.1875 C-2.69228692 5.3792946 -1.37343408 2.69241483 0 0 Z " fill="#B6B3A9" transform="translate(513,509)"/>
<path d="M0 0 C2.625 0.375 2.625 0.375 4.4375 2.6875 C5.625 5.375 5.625 5.375 5.625 8.375 C6.285 8.375 6.945 8.375 7.625 8.375 C9.6732774 12.35223766 11.65843985 16.35681221 13.625 20.375 C14.15287109 21.35533203 14.15287109 21.35533203 14.69140625 22.35546875 C16.28153407 25.71240526 16.76952429 28.95579363 16.80078125 32.64453125 C16.81165771 33.80625854 16.81165771 33.80625854 16.82275391 34.99145508 C16.80785301 38.45520356 16.73122588 41.91282331 16.625 45.375 C13.94599715 43.01345124 12.67539538 40.69486328 11.25 37.4375 C10.81816406 36.4578125 10.38632812 35.478125 9.94140625 34.46875 C8.66465115 31.46818609 7.42248079 28.45545949 6.1875 25.4375 C4.03396185 20.18013227 1.53643655 15.17320345 -1.140625 10.1640625 C-2.45516017 7.1938786 -3.05884404 4.60165053 -3.375 1.375 C-2.375 0.375 -2.375 0.375 0 0 Z " fill="#826B61" transform="translate(513.375,523.625)"/>
<path d="M0 0 C0.66 0.33 1.32 0.66 2 1 C0.91856544 4.73586485 -0.50818406 8.11791736 -2.26953125 11.5703125 C-4.93185639 16.84107151 -7.47667538 22.16159136 -10 27.5 C-12.88913135 33.61231851 -15.82286866 39.6938236 -18.88061523 45.72387695 C-20.00948529 48.01928711 -21.04843026 50.33938961 -22.0625 52.6875 C-23.78453261 56.63763194 -25.79517097 60.29903699 -28 64 C-28.99 63.67 -29.98 63.34 -31 63 C-30.67 62.34 -30.34 61.68 -30 61 C-29.34 61 -28.68 61 -28 61 C-27.87625 60.01 -27.87625 60.01 -27.75 59 C-26.91467405 55.65869619 -25.55142713 52.99859537 -23.96484375 49.9609375 C-22.89147421 47.90731953 -22.89147421 47.90731953 -22.125 45.1875 C-20.66591257 41.05341894 -18.52171649 37.43127654 -16.3828125 33.61328125 C-14.90198763 30.81477324 -13.97821226 28.00450908 -13 25 C-12.360625 24.071875 -11.72125 23.14375 -11.0625 22.1875 C-8.9071962 18.85657594 -7.88285675 15.87280736 -6.71875 12.12109375 C-5.54712708 8.66353264 -4.33639255 5.66819627 -1 4 C-0.34786708 1.97536745 -0.34786708 1.97536745 0 0 Z " fill="#1D1723" transform="translate(691,307)"/>
<path d="M0 0 C0.33 0.66 0.66 1.32 1 2 C1.66 2 2.32 2 3 2 C3 3.32 3 4.64 3 6 C6.3 6.33 9.6 6.66 13 7 C13.36263859 12.8022175 12.25684543 16.63999211 10 22 C9.02408417 18.61682513 9.14143345 16.4342662 10 13 C8.35 12.67 6.7 12.34 5 12 C5.66 11.67 6.32 11.34 7 11 C7 10.01 7 9.02 7 8 C5.02 8 3.04 8 1 8 C0.73445312 8.68707031 0.46890625 9.37414062 0.1953125 10.08203125 C-0.33449219 11.43361328 -0.33449219 11.43361328 -0.875 12.8125 C-1.22304688 13.70582031 -1.57109375 14.59914063 -1.9296875 15.51953125 C-3 18 -3 18 -5 21 C-6.35796715 14.50644798 -6.60205234 10.10675547 -3.0625 4.3125 C-2.0683699 2.85640512 -1.05638717 1.41157822 0 0 Z " fill="#877B78" transform="translate(739,394)"/>
<path d="M0 0 C1.8359375 2.3984375 1.8359375 2.3984375 3.375 5.375 C3.89835937 6.35210937 4.42171875 7.32921875 4.9609375 8.3359375 C6 11 6 11 5 14 C4.67 13.34 4.34 12.68 4 12 C3.34 11.67 2.68 11.34 2 11 C0.875 8.9375 0.875 8.9375 0 7 C-1.051875 7.70125 -2.10375 8.4025 -3.1875 9.125 C-6.59215729 11.10413005 -6.59215729 11.10413005 -9.9375 10.25 C-10.618125 9.8375 -11.29875 9.425 -12 9 C-12.33 6.69 -12.66 4.38 -13 2 C-11.77773359 1.46317332 -10.54671915 0.94624468 -9.3125 0.4375 C-8.62800781 0.14746094 -7.94351563 -0.14257812 -7.23828125 -0.44140625 C-4.35115445 -1.1619283 -2.79095848 -1.05833146 0 0 Z " fill="#CCBCB6" transform="translate(262,363)"/>
<path d="M0 0 C1.65 0 3.3 0 5 0 C6.32 3.3 7.64 6.6 9 10 C2.565 11.98 2.565 11.98 -4 14 C-7 8 -7 8 -7 6 C-6.401875 5.938125 -5.80375 5.87625 -5.1875 5.8125 C-2.73122778 5.16868887 -2.73122778 5.16868887 -1.5625 2.4375 C-1.046875 1.633125 -0.53125 0.82875 0 0 Z " fill="#926368" transform="translate(252,352)"/>
<path d="M0 0 C2.18975773 3.28463659 2.99806563 6.20696275 4 10 C2.75747321 10.84443568 1.5056114 11.6751458 0.25 12.5 C-0.44609375 12.9640625 -1.1421875 13.428125 -1.859375 13.90625 C-4 15 -4 15 -8 15 C-8.99 12.36 -9.98 9.72 -11 7 C-10.28972656 6.74605469 -9.57945312 6.49210938 -8.84765625 6.23046875 C-7.92855469 5.88628906 -7.00945312 5.54210937 -6.0625 5.1875 C-5.14597656 4.85105469 -4.22945313 4.51460937 -3.28515625 4.16796875 C-0.6659576 3.16590906 -0.6659576 3.16590906 0 0 Z " fill="#5B4654" transform="translate(412,676)"/>
<path d="M0 0 C2.475 0.99 2.475 0.99 5 2 C5.33 1.34 5.66 0.68 6 0 C6.33 0.66 6.66 1.32 7 2 C6.01196289 4.61376953 6.01196289 4.61376953 4.47265625 7.8828125 C3.92802734 9.04941406 3.38339844 10.21601563 2.82226562 11.41796875 C2.23584617 12.65372609 1.64925539 13.88940213 1.0625 15.125 C0.47909568 16.36815099 -0.10359596 17.61163671 -0.68554688 18.85546875 C-2.11670091 21.90702032 -3.55512212 24.95492856 -5 28 C-5.33 28 -5.66 28 -6 28 C-6.22162329 26.37675914 -6.42689803 24.751279 -6.625 23.125 C-6.74101563 22.22007812 -6.85703125 21.31515625 -6.9765625 20.3828125 C-6.98429688 19.59648437 -6.99203125 18.81015625 -7 18 C-6.34 17.34 -5.68 16.68 -5 16 C-4.34 16.33 -3.68 16.66 -3 17 C-3 15.68 -3 14.36 -3 13 C-2.34 13 -1.68 13 -1 13 C-0.67 8.71 -0.34 4.42 0 0 Z " fill="#C7C3C7" transform="translate(534,363)"/>
<path d="M0 0 C0.66 0 1.32 0 2 0 C-2.04501812 12.80922406 -6.83574105 24.6177306 -14 36 C-14.99 35.67 -15.98 35.34 -17 35 C-16.58103969 30.11212973 -14.41618129 28.3285869 -11 25 C-11 24.01 -11 23.02 -11 22 C-10 19.8125 -10 19.8125 -9 18 C-8.34 18 -7.68 18 -7 18 C-6.8453125 16.9790625 -6.8453125 16.9790625 -6.6875 15.9375 C-5.36180007 10.27314577 -2.64008516 5.15445199 0 0 Z " fill="#CFCAD0" transform="translate(551,526)"/>
<path d="M0 0 C2 1.375 2 1.375 4 3 C4 3.66 4 4.32 4 5 C4.66 5 5.32 5 6 5 C6.33 7.31 6.66 9.62 7 12 C7.99 12.33 8.98 12.66 10 13 C10 14.65 10 16.3 10 18 C9.34 18.33 8.68 18.66 8 19 C8 17.68 8 16.36 8 15 C6.68 15 5.36 15 4 15 C2.5 13.625 2.5 13.625 1 12 C-1.09989652 10.82425289 -1.09989652 10.82425289 -3 10 C-2.49287967 6.28111761 -1.88391785 3.26545761 0 0 Z " fill="#D4CBC0" transform="translate(512,322)"/>
<path d="M0 0 C3 1 3 1 4.2890625 3.01953125 C4.72992188 3.94121094 5.17078125 4.86289062 5.625 5.8125 C6.13933594 6.88371094 6.65367187 7.95492187 7.18359375 9.05859375 C9.78850763 14.6708785 12.326749 20.31431886 14.84033203 25.96801758 C15.20626465 26.79068115 15.57219727 27.61334473 15.94921875 28.4609375 C16.29645996 29.24436523 16.64370117 30.02779297 17.00146484 30.83496094 C17.87483677 32.72861918 18.84599702 34.57654882 19.83203125 36.4140625 C21 39 21 39 20 42 C16.95430573 40.47715287 16.80828202 38.15425299 15.6875 35 C13.86821393 30.09327845 11.82312261 25.68104865 9.1875 21.17578125 C7.48825478 18.06236155 6.2503881 14.81478614 4.98046875 11.5078125 C3.45704497 7.61124649 1.72950542 3.80859172 0 0 Z " fill="#2C1020" transform="translate(374,528)"/>
<path d="M0 0 C1.17309874 3.51929621 0.84164244 3.97573243 -0.6875 7.1875 C-1.02136719 7.90292969 -1.35523438 8.61835938 -1.69921875 9.35546875 C-3.44879157 12.91240809 -5.2229291 16.45673576 -7 20 C-7.71373689 21.4269857 -8.42727873 22.85406898 -9.140625 24.28125 C-11.09375 28.1875 -13.046875 32.09375 -15 36 C-15.66 36 -16.32 36 -17 36 C-15.68478437 30.21305121 -13.23995257 25.34670082 -10.5234375 20.0859375 C-8.71638461 16.42549704 -7.25341112 12.69688058 -5.859375 8.86328125 C-5 7 -5 7 -3 6 C-1.95191959 4.02477154 -0.9479589 2.02518491 0 0 Z " fill="#1C1522" transform="translate(606,302)"/>
<path d="M0 0 C1.0703125 1.80078125 1.0703125 1.80078125 2 4 C1.12172115 6.48845673 0.15897025 8.64973763 -1 11 C-1.29261719 11.72832031 -1.58523438 12.45664062 -1.88671875 13.20703125 C-4.00853646 18.46233504 -6.56543108 23.32226418 -11 27 C-11.99 27 -12.98 27 -14 27 C-14 25.68 -14 24.36 -14 23 C-13.27425781 22.45859375 -12.54851563 21.9171875 -11.80078125 21.359375 C-7.80848796 17.99627159 -6.27742084 13.95840734 -4.1875 9.25 C-3.78080078 8.36183594 -3.37410156 7.47367188 -2.95507812 6.55859375 C-1.95829879 4.37740602 -0.97382651 2.19150758 0 0 Z " fill="#CECAD3" transform="translate(535,652)"/>
<path d="M0 0 C0.55171875 0.48082031 1.1034375 0.96164062 1.671875 1.45703125 C4.36143493 3.23954161 6.05821418 3.47751409 9.25 3.6875 C10.14203125 3.75324219 11.0340625 3.81898438 11.953125 3.88671875 C12.62859375 3.92410156 13.3040625 3.96148437 14 4 C13.67 6.97 13.34 9.94 13 13 C12.67 12.01 12.34 11.02 12 10 C10.906875 10.020625 9.81375 10.04125 8.6875 10.0625 C5 10 5 10 2 9 C2 7.68 2 6.36 2 5 C1.34 5 0.68 5 0 5 C-0.5625 3.0625 -0.5625 3.0625 -1 1 C-0.67 0.67 -0.34 0.34 0 0 Z " fill="#5A3D45" transform="translate(740,391)"/>
<path d="M0 0 C2.7558573 4.13378595 3.10756445 6.05203546 3 11 C1.59308393 11.72750788 0.17393978 12.43140353 -1.25 13.125 C-2.03890625 13.51945313 -2.8278125 13.91390625 -3.640625 14.3203125 C-6 15 -6 15 -8.15625 14.34375 C-11.19909241 12.12608519 -12.28169713 9.31386983 -14 6 C-7.25 7.75 -7.25 7.75 -5 10 C-3.68 9.67 -2.36 9.34 -1 9 C-0.67 6.03 -0.34 3.06 0 0 Z " fill="#AFB4B8" transform="translate(409,668)"/>
<path d="M0 0 C1 2 1 2 0.58203125 3.8828125 C-1.01846031 8.54617371 -2.8199673 12.86937978 -5.23046875 17.17578125 C-6.25911622 19.28426897 -6.25911622 19.28426897 -6 23 C-6.66 23 -7.32 23 -8 23 C-9.07525194 25.65228812 -10.09456151 28.28368454 -11 31 C-12.4375 32.5625 -12.4375 32.5625 -14 34 C-14.66 34.66 -15.32 35.32 -16 36 C-15.40596692 32.44328602 -14.45822739 29.51221932 -12.890625 26.26953125 C-12.46523438 25.38330078 -12.03984375 24.49707031 -11.6015625 23.58398438 C-11.15554688 22.66939453 -10.70953125 21.75480469 -10.25 20.8125 C-9.81945312 19.91724609 -9.38890625 19.02199219 -8.9453125 18.09960938 C-6.02144448 12.03739798 -3.02453583 6.01252384 0 0 Z " fill="#1B1125" transform="translate(526,589)"/>
<path d="M0 0 C0.99 0.66 1.98 1.32 3 2 C3.51171875 4.6015625 3.51171875 4.6015625 3.6875 7.625 C3.75324219 8.62789062 3.81898438 9.63078125 3.88671875 10.6640625 C3.92410156 11.43492187 3.96148438 12.20578125 4 13 C5.32 12.01 6.64 11.02 8 10 C8.66 13.96 9.32 17.92 10 22 C6 19 6 19 4.5625 16.5625 C3.11829435 13.82107714 3.11829435 13.82107714 0.3125 12.0625 C-2 10 -2 10 -2.4375 7 C-2.02914449 4.19984794 -1.47068318 2.38986017 0 0 Z " fill="#BAB7B1" transform="translate(513,509)"/>
<path d="M0 0 C6.46254568 6.46254568 6.73240554 15.34331914 7 24 C7.66 24 8.32 24 9 24 C8.54917531 25.46067199 8.08906463 26.91848032 7.625 28.375 C7.36976563 29.18710937 7.11453125 29.99921875 6.8515625 30.8359375 C6 33 6 33 4 35 C3.10495213 29.76052748 2.97790451 24.86386899 3.125 19.5625 C3.22727648 13.31152284 2.74347617 8.71557536 0 3 C0 2.01 0 1.02 0 0 Z " fill="#8E8178" transform="translate(526,541)"/>
<path d="M0 0 C0.97319457 2.57941272 1.09758819 3.72831963 0.15136719 6.36254883 C-0.29561523 7.21872803 -0.74259766 8.07490723 -1.203125 8.95703125 C-1.68910156 9.90513672 -2.17507813 10.85324219 -2.67578125 11.83007812 C-3.19527344 12.81427734 -3.71476563 13.79847656 -4.25 14.8125 C-5.25696231 16.75560247 -6.26221119 18.69959397 -7.265625 20.64453125 C-7.74064453 21.56186035 -8.21566406 22.47918945 -8.70507812 23.42431641 C-10.28487986 26.56664452 -11.67382059 29.74359372 -13 33 C-13.66 33 -14.32 33 -15 33 C-15 31.02 -15 29.04 -15 27 C-14.34 27 -13.68 27 -13 27 C-12.6596875 25.7934375 -12.6596875 25.7934375 -12.3125 24.5625 C-10.91286026 20.76347785 -9.0942075 17.51602931 -7.0234375 14.05078125 C-5.77673413 11.93461116 -5.77673413 11.93461116 -6 9 C-4 7 -4 7 -2 5 C-0.74563813 2.36777038 -0.74563813 2.36777038 0 0 Z " fill="#F5F2F5" transform="translate(707,376)"/>
<path d="M0 0 C0.66 0 1.32 0 2 0 C1.41176499 3.64576426 0.40818334 6.48975788 -1.3125 9.75 C-3.00647847 13.02599858 -4.60341168 16.30033068 -6.0625 19.6875 C-7.78453261 23.63763194 -9.79517097 27.29903699 -12 31 C-12.99 30.67 -13.98 30.34 -15 30 C-14.67 29.34 -14.34 28.68 -14 28 C-13.34 28 -12.68 28 -12 28 C-11.9175 27.34 -11.835 26.68 -11.75 26 C-10.91537536 22.66150143 -9.55416661 20.00369037 -7.96875 16.96875 C-6.88429056 14.88727358 -6.88429056 14.88727358 -6.0625 12.0625 C-4.56510058 7.74646638 -2.29302433 3.93840056 0 0 Z " fill="#13141C" transform="translate(675,340)"/>
<path d="M0 0 C0.25910156 0.59941406 0.51820313 1.19882812 0.78515625 1.81640625 C2.0934352 4.16794302 3.32716438 5.29915342 5.4375 6.9375 C8.39280852 9.37884182 10.26542736 11.53085472 12 15 C12.53625 15.99 13.0725 16.98 13.625 18 C14.87661715 20.73080106 15.56528082 23.04390957 16 26 C12.96130589 24.48065294 12.35589694 22.01995228 11 19 C11 18.34 11 17.68 11 17 C10.34 17 9.68 17 9 17 C8.01 14.69 7.02 12.38 6 10 C2.37114676 9.84850702 2.37114676 9.84850702 -1 11 C-2.60080151 6.99799622 -1.29279692 3.95443764 0 0 Z " fill="#9B918E" transform="translate(510,515)"/>
<path d="M0 0 C3 1 3 1 4.36621094 3.14550781 C5.84197324 6.17392796 7.31003791 9.20435128 8.75 12.25 C9.52923828 13.82587891 9.52923828 13.82587891 10.32421875 15.43359375 C10.81019531 16.45066406 11.29617188 17.46773438 11.796875 18.515625 C12.46734863 19.91216309 12.46734863 19.91216309 13.15136719 21.33691406 C14.11073991 24.34751179 13.88528078 26.00522935 13 29 C12.67 29 12.34 29 12 29 C11.84144531 28.45472656 11.68289063 27.90945313 11.51953125 27.34765625 C9.90822646 22.13984795 7.85317535 17.682576 4.98828125 13.04296875 C4 11 4 11 4 7 C3.34 7 2.68 7 2 7 C0.5393715 4.35261084 0 3.10551666 0 0 Z " fill="#2C0F1E" transform="translate(312,397)"/>
<path d="M0 0 C4.22797927 2.81865285 4.22797927 2.81865285 6 5 C6.53855713 7.85646479 6.29847264 10.06501905 6 13 C6.66 13 7.32 13 8 13 C9.35439668 15.70879335 9.06501451 18.00933268 9 21 C6.0332509 18.47566086 4.84037816 15.76104489 3.375 12.1875 C2.94960938 11.17042969 2.52421875 10.15335938 2.0859375 9.10546875 C1.0204129 6.05837501 0.42957797 3.19319627 0 0 Z " fill="#523837" transform="translate(520,546)"/>
<path d="M0 0 C1.2463623 0.05236816 2.49272461 0.10473633 3.77685547 0.15869141 C4.43990692 0.18371735 5.10295837 0.20874329 5.78610229 0.23452759 C7.90593312 0.31676657 10.02483734 0.41333755 12.14404297 0.51025391 C13.58020291 0.56848972 15.01640099 0.62579309 16.45263672 0.68212891 C19.97527899 0.82234933 23.49722957 0.97542991 27.01904297 1.13525391 C27.01904297 1.79525391 27.01904297 2.45525391 27.01904297 3.13525391 C22.99822509 3.1644717 18.97743483 3.18212579 14.95654297 3.19775391 C13.25594727 3.21032227 13.25594727 3.21032227 11.52099609 3.22314453 C5.91025429 3.23950238 0.54254965 3.15337488 -4.98095703 2.13525391 C-2.98095703 0.13525391 -2.98095703 0.13525391 0 0 Z " fill="#613641" transform="translate(339.98095703125,259.86474609375)"/>
<path d="M0 0 C2.6875 -0.3125 2.6875 -0.3125 5 0 C5.33 1.32 5.66 2.64 6 4 C4.824375 4.37125 4.824375 4.37125 3.625 4.75 C0.67682892 6.15389099 0.0975223 7.00675737 -1 10 C-1.99 10 -2.98 10 -4 10 C-4.33 10.66 -4.66 11.32 -5 12 C-5.66 10.02 -6.32 8.04 -7 6 C-6.401875 5.938125 -5.80375 5.87625 -5.1875 5.8125 C-2.73122778 5.16868887 -2.73122778 5.16868887 -1.5625 2.4375 C-1.046875 1.633125 -0.53125 0.82875 0 0 Z " fill="#723641" transform="translate(252,352)"/>
<path d="M0 0 C0.99 0.33 1.98 0.66 3 1 C0.92480539 8.13664487 -1.6457656 15.6457656 -7 21 C-7 18.69 -7 16.38 -7 14 C-6.34 14 -5.68 14 -5 14 C-4.67 11.69 -4.34 9.38 -4 7 C-3.01 6.67 -2.02 6.34 -1 6 C-0.67 4.02 -0.34 2.04 0 0 Z " fill="#341B25" transform="translate(620,270)"/>
<path d="M0 0 C0.33 0.66 0.66 1.32 1 2 C0.22265625 4.05859375 0.22265625 4.05859375 -0.9375 6.4375 C-2.3388088 9.32087099 -3 10.74651698 -3 14 C-3.66 14 -4.32 14 -5 14 C-4.67 14.99 -4.34 15.98 -4 17 C-6 19 -8 21 -10 23 C-9.47241788 17.43509268 -7.99340564 13.13533912 -5.5625 8.125 C-5.24990234 7.44953125 -4.93730469 6.7740625 -4.61523438 6.078125 C-2.26704452 1.13352226 -2.26704452 1.13352226 0 0 Z " fill="#EBE9EC" transform="translate(723,429)"/>
<path d="M0 0 C0.33 0.99 0.66 1.98 1 3 C0 4 0 4 -3.0625 4.0625 C-4.031875 4.041875 -5.00125 4.02125 -6 4 C-6 4.66 -6 5.32 -6 6 C-8.31 6 -10.62 6 -13 6 C-13 4.68 -13 3.36 -13 2 C-4.738041 -1.62870159 -4.738041 -1.62870159 0 0 Z " fill="#AF8F8F" transform="translate(262,363)"/>
<path d="M0 0 C2.625 0.375 2.625 0.375 4.5 2.625 C5.625 5.375 5.625 5.375 5.5 7.625 C5.066875 8.49125 5.066875 8.49125 4.625 9.375 C3.635 9.705 2.645 10.035 1.625 10.375 C1.295 9.055 0.965 7.735 0.625 6.375 C-0.365 6.705 -1.355 7.035 -2.375 7.375 C-2.75633299 5.3835944 -3.08825582 3.38220923 -3.375 1.375 C-2.375 0.375 -2.375 0.375 0 0 Z " fill="#7D6A64" transform="translate(513.375,523.625)"/>
<path d="M0 0 C0.66 0 1.32 0 2 0 C1.71252022 5.46211578 -0.66983047 9.02255514 -3.5 13.51953125 C-5.35608493 16.58883836 -6.69503016 19.66507708 -8 23 C-8.99 23 -9.98 23 -11 23 C-10.45730469 21.92621094 -9.91460938 20.85242188 -9.35546875 19.74609375 C-8.63270385 18.30995051 -7.91005372 16.8737495 -7.1875 15.4375 C-6.83107422 14.73302734 -6.47464844 14.02855469 -6.10742188 13.30273438 C-3.90907591 8.92621075 -1.88336074 4.52125402 0 0 Z " fill="#231B26" transform="translate(598,614)"/>
<path d="M0 0 C0.99 0.495 0.99 0.495 2 1 C2 1.66 2 2.32 2 3 C3.11375 3.2475 3.11375 3.2475 4.25 3.5 C8.68534168 5.91927728 10.13393989 10.23978263 11.60546875 14.9296875 C12.07792949 17.40893691 12.09568744 19.7277548 12.0625 22.25 C12.05347656 23.14203125 12.04445313 24.0340625 12.03515625 24.953125 C12.02355469 25.62859375 12.01195312 26.3040625 12 27 C10 25 10 25 9.8046875 23.0546875 C9.86979167 21.03645833 9.93489583 19.01822917 10 17 C9.34 17 8.68 17 8 17 C7.9071875 15.14375 7.9071875 15.14375 7.8125 13.25 C7.39689778 9.79072269 7.19202449 9.18710079 4.5625 6.625 C3.716875 6.08875 2.87125 5.5525 2 5 C1.34 4.34 0.68 3.68 0 3 C0 2.01 0 1.02 0 0 Z " fill="#6F554E" transform="translate(518,542)"/>
<path d="M0 0 C0.66 0.33 1.32 0.66 2 1 C-1.28617412 9.8843026 -4.92680284 18.44768569 -9 27 C-9.66 26.34 -10.32 25.68 -11 25 C-8.68851025 18.93072525 -6.14089427 13.08993959 -3.1484375 7.32421875 C-1.96321203 4.92554816 -0.96277784 2.49527285 0 0 Z " fill="#C5C1C4" transform="translate(583,642)"/>
<path d="M0 0 C2 0 2 0 3.625 1.5 C4.07875 1.995 4.5325 2.49 5 3 C5.66 2.67 6.32 2.34 7 2 C8.28571429 10.42857143 8.28571429 10.42857143 7 15 C4.09270224 13.54635112 3.45668357 11.91336715 2 9 C1.1877537 6.02508564 0.56138338 3.03147025 0 0 Z " fill="#DAD4C7" transform="translate(523,343)"/>
<path d="M0 0 C0.99 0 1.98 0 3 0 C2.566875 0.804375 2.566875 0.804375 2.125 1.625 C0.92003272 4.03906713 0.92003272 4.03906713 0.0625 6.875 C-1.03167356 10.09315754 -2.48197305 12.96394611 -4 16 C-4.165 16.7425 -4.33 17.485 -4.5 18.25 C-5 20 -5 20 -8 22 C-7.48053489 16.37368074 -5.93544322 12.10290424 -3.4375 7.0625 C-3.10814453 6.37865234 -2.77878906 5.69480469 -2.43945312 4.99023438 C-1.63482961 3.32268129 -0.8186103 1.66073161 0 0 Z " fill="#201420" transform="translate(555,333)"/>
<path d="M0 0 C0.66 0.66 1.32 1.32 2 2 C1.6559633 9.22477064 1.6559633 9.22477064 -0.375 11.625 C-0.91125 12.07875 -1.4475 12.5325 -2 13 C-3.04622875 14.97620986 -4.05439935 16.9737129 -5 19 C-5.66 18.67 -6.32 18.34 -7 18 C-5.64474464 13.78224268 -4.09799886 9.70578678 -2.375 5.625 C-1.92898438 4.56539062 -1.48296875 3.50578125 -1.0234375 2.4140625 C-0.68570313 1.61742187 -0.34796875 0.82078125 0 0 Z " fill="#CFCBD1" transform="translate(546,627)"/>
<path d="M0 0 C3.32560215 3.32560215 4.77671459 7.74724731 6.6875 12 C7.11611328 12.928125 7.54472656 13.85625 7.98632812 14.8125 C8.38658203 15.699375 8.78683594 16.58625 9.19921875 17.5 C9.56877686 18.3146875 9.93833496 19.129375 10.3190918 19.96875 C10.5437915 20.6390625 10.76849121 21.309375 11 22 C10.67 22.66 10.34 23.32 10 24 C6 18.375 6 18.375 6 15 C5.01 14.67 4.02 14.34 3 14 C2.0859375 12.07421875 2.0859375 12.07421875 1.375 9.6875 C1.13523437 8.90761719 0.89546875 8.12773438 0.6484375 7.32421875 C0.43445313 6.55722656 0.22046875 5.79023437 0 5 C-0.21398437 4.26394531 -0.42796875 3.52789063 -0.6484375 2.76953125 C-0.76445312 2.18558594 -0.88046875 1.60164062 -1 1 C-0.67 0.67 -0.34 0.34 0 0 Z " fill="#311526" transform="translate(469,544)"/>
<path d="M0 0 C0.99 0 1.98 0 3 0 C2.80664062 0.56847656 2.61328125 1.13695312 2.4140625 1.72265625 C1.17910113 5.38474468 -0.00361301 9.01354878 -1 12.75 C-1.9741083 15.91585198 -3.09487081 18.30106699 -5 21 C-5.66 21.33 -6.32 21.66 -7 22 C-4.84071065 14.60606981 -2.4695482 7.29582259 0 0 Z " fill="#1D1519" transform="translate(746,420)"/>
<path d="M0 0 C0.99 0 1.98 0 3 0 C4.33934716 2.95564708 5.67044247 5.9149378 7 8.875 C7.3815625 9.71675781 7.763125 10.55851562 8.15625 11.42578125 C8.5171875 12.23144531 8.878125 13.03710938 9.25 13.8671875 C9.58515625 14.61081543 9.9203125 15.35444336 10.265625 16.12060547 C11 18 11 18 11 20 C10.01 20 9.02 20 8 20 C7.35163958 18.25093469 6.70641216 16.50070781 6.0625 14.75 C5.52302734 13.28820312 5.52302734 13.28820312 4.97265625 11.796875 C4 9 4 9 3.55859375 6.703125 C3.37425781 6.14109375 3.18992187 5.5790625 3 5 C2.01 4.67 1.02 4.34 0 4 C0 2.68 0 1.36 0 0 Z " fill="#38202F" transform="translate(472,370)"/>
<path d="M0 0 C0.66 0.33 1.32 0.66 2 1 C1.3567604 5.57316923 -0.44962821 9.44505476 -2.4375 13.5625 C-2.90639648 14.5515332 -2.90639648 14.5515332 -3.38476562 15.56054688 C-4.88876328 18.72434743 -6.41747614 21.87471418 -8 25 C-8.66 25 -9.32 25 -10 25 C-10 24.01 -10 23.02 -10 22 C-9.34 22 -8.68 22 -8 22 C-7.89042969 21.24074219 -7.78085937 20.48148438 -7.66796875 19.69921875 C-7.50941406 18.70535156 -7.35085938 17.71148438 -7.1875 16.6875 C-6.96126953 15.20830078 -6.96126953 15.20830078 -6.73046875 13.69921875 C-5.94413076 10.79355271 -5.22938802 9.91491515 -3 8 C-1.0549 5.08235 -0.54723683 3.37462715 0 0 Z " fill="#1A0C17" transform="translate(558,595)"/>
<path d="M0 0 C0.99 0.33 1.98 0.66 3 1 C3.71727778 2.64551962 4.38325228 4.31422289 5 6 C5.66 6.66 6.32 7.32 7 8 C7.56520003 10.65537372 7.73788198 13.29144713 8 16 C8.66 16 9.32 16 10 16 C10.66 18.64 11.32 21.28 12 24 C9.5230138 21.76425846 8.1555457 19.63163521 6.73828125 16.62109375 C6.34189453 15.78255859 5.94550781 14.94402344 5.53710938 14.08007812 C4.93092773 12.77200195 4.93092773 12.77200195 4.3125 11.4375 C3.68891602 10.12362305 3.68891602 10.12362305 3.05273438 8.78320312 C0 2.27170567 0 2.27170567 0 0 Z " fill="#1E0F1E" transform="translate(425,531)"/>
<path d="M0 0 C1.11166125 3.33498374 0.97189485 3.75682134 -0.29296875 6.8359375 C-0.59396484 7.57070313 -0.89496094 8.30546875 -1.20507812 9.0625 C-1.52927734 9.825625 -1.85347656 10.58875 -2.1875 11.375 C-2.64479492 12.50808594 -2.64479492 12.50808594 -3.11132812 13.6640625 C-4.91470613 17.98914519 -6.83128663 21.47296206 -10 25 C-9.71758359 23.53984709 -9.42373386 22.08190207 -9.125 20.625 C-8.96257813 19.81289063 -8.80015625 19.00078125 -8.6328125 18.1640625 C-8 16 -8 16 -6 14 C-5.84660156 13.23300781 -5.69320312 12.46601563 -5.53515625 11.67578125 C-4.95061619 8.75308097 -3.93156994 6.75423554 -2.4375 4.1875 C-1.98246094 3.39730469 -1.52742187 2.60710937 -1.05859375 1.79296875 C-0.70925781 1.20128906 -0.35992188 0.60960937 0 0 Z " fill="#1B121E" transform="translate(570,380)"/>
<path d="M0 0 C0.66 0.66 1.32 1.32 2 2 C0.55177287 5.15058384 -0.91024622 8.29456973 -2.375 11.4375 C-2.7875 12.33533203 -3.2 13.23316406 -3.625 14.15820312 C-4.02460937 15.01220703 -4.42421875 15.86621094 -4.8359375 16.74609375 C-5.38580322 17.93223267 -5.38580322 17.93223267 -5.94677734 19.14233398 C-7 21 -7 21 -9 22 C-9 19.69 -9 17.38 -9 15 C-8.34 15 -7.68 15 -7 15 C-6.87625 14.195625 -6.7525 13.39125 -6.625 12.5625 C-6.41875 11.716875 -6.2125 10.87125 -6 10 C-5.34 9.67 -4.68 9.34 -4 9 C-3.34786708 6.97536745 -3.34786708 6.97536745 -3 5 C-2.34 5 -1.68 5 -1 5 C-0.67 3.35 -0.34 1.7 0 0 Z " fill="#241721" transform="translate(517,308)"/>
<path d="M0 0 C0 0.99 0 1.98 0 3 C-0.7425 3.165 -1.485 3.33 -2.25 3.5 C-5.77968569 5.4252831 -6.52887476 7.43807658 -8.10546875 11.02734375 C-9 13 -9 13 -11 16 C-11 12.37 -11 8.74 -11 5 C-9.68 4.67 -8.36 4.34 -7 4 C-7 3.34 -7 2.68 -7 2 C-4.35261084 0.5393715 -3.10551666 0 0 0 Z " fill="#49252E" transform="translate(544,260)"/>
<path d="M0 0 C0.99 0.33 1.98 0.66 3 1 C1.74118512 3.65218242 0.46885956 6.29623869 -0.8125 8.9375 C-1.16892578 9.69224609 -1.52535156 10.44699219 -1.89257812 11.22460938 C-2.24384766 11.94326172 -2.59511719 12.66191406 -2.95703125 13.40234375 C-3.27647705 14.06741943 -3.59592285 14.73249512 -3.92504883 15.41772461 C-5 17 -5 17 -8 18 C-6.10463724 11.48180123 -3.4821006 5.82185199 0 0 Z " fill="#C7C9CC" transform="translate(564,682)"/>
<path d="M0 0 C2 3 2 3 2 7 C-6.42857143 9.42857143 -6.42857143 9.42857143 -11 8 C-8.60419906 5.97278382 -6.84542064 4.95150451 -3.8125 4 C-2.884375 3.67 -1.95625 3.34 -1 3 C-0.67 2.01 -0.34 1.02 0 0 Z " fill="#766671" transform="translate(412,676)"/>
<path d="M0 0 C0.99 0.33 1.98 0.66 3 1 C-0.96 5.29 -4.92 9.58 -9 14 C-9.66 13.34 -10.32 12.68 -11 12 C-8.9859524 8.9789286 -7.36720387 7.39332574 -4 6 C-4 5.01 -4 4.02 -4 3 C-2.1875 1.25 -2.1875 1.25 0 0 Z " fill="#C2C3CA" transform="translate(554,701)"/>
<path d="M0 0 C0.33 0 0.66 0 1 0 C1.3540919 6.51791392 1.03901852 11.17521449 -2 17 C-2.33 17 -2.66 17 -3 17 C-4.76034894 6.24656407 -4.76034894 6.24656407 -2.125 2.3125 C-1.42375 1.549375 -0.7225 0.78625 0 0 Z " fill="#B6B5AB" transform="translate(737,398)"/>
<path d="M0 0 C2.88615109 1.44307554 3.30813809 3.40539257 4.625 6.3125 C5.07101562 7.27800781 5.51703125 8.24351562 5.9765625 9.23828125 C7 12 7 12 7 16 C7.66 16 8.32 16 9 16 C9.66 18.31 10.32 20.62 11 23 C10.34 23 9.68 23 9 23 C7.48729764 19.92274141 5.99211419 16.83728731 4.5 13.75 C4.07074219 12.87730469 3.64148438 12.00460937 3.19921875 11.10546875 C2.79316406 10.26113281 2.38710938 9.41679688 1.96875 8.546875 C1.59169922 7.77182617 1.21464844 6.99677734 0.82617188 6.19824219 C0 4 0 4 0 0 Z " fill="#190E1D" transform="translate(438,557)"/>
<path d="M0 0 C0.66 0.33 1.32 0.66 2 1 C0.23570801 5.97209562 -2.3939166 10.43438061 -5 15 C-5.99 14.67 -6.98 14.34 -8 14 C-7.58101826 9.11187968 -5.4649477 7.29592586 -2 4 C-0.70480005 1.83379456 -0.70480005 1.83379456 0 0 Z " fill="#C1BCC5" transform="translate(542,547)"/>
<path d="M0 0 C1.20719453 3.62158358 0.38393229 4.82552295 -1.1796875 8.1640625 C-2.13133098 10.18405407 -2.13133098 10.18405407 -2.9375 13.1875 C-4.11282292 16.29864892 -5.50952525 17.84158855 -8 20 C-8.66 19.67 -9.32 19.34 -10 19 C-9.68546875 18.53851563 -9.3709375 18.07703125 -9.046875 17.6015625 C-5.97335855 12.91722718 -3.7520856 8.25252486 -1.796875 3.00390625 C-1 1 -1 1 0 0 Z " fill="#110A12" transform="translate(723,485)"/>
<path d="M0 0 C2.475 0.99 2.475 0.99 5 2 C5.33 1.34 5.66 0.68 6 0 C6.33 0.66 6.66 1.32 7 2 C6.00390625 4.1640625 6.00390625 4.1640625 4.5625 6.625 C4.08941406 7.44226563 3.61632812 8.25953125 3.12890625 9.1015625 C2.75636719 9.72804688 2.38382813 10.35453125 2 11 C1.01 10.34 0.02 9.68 -1 9 C-0.67 6.03 -0.34 3.06 0 0 Z " fill="#D9D8D3" transform="translate(534,363)"/>
<path d="M0 0 C1.86251028 6.78181223 -1.13901649 11.89213287 -4 18 C-4.66 17.01 -5.32 16.02 -6 15 C-4.75527697 9.77216328 -2.23208288 4.8759092 0 0 Z " fill="#D5D5D9" transform="translate(575,562)"/>
<path d="M0 0 C0.66 0.33 1.32 0.66 2 1 C-2.80239407 5.77744657 -6.07011948 8.85562749 -13 9 C-13 8.34 -13 7.68 -13 7 C-10.88002166 5.80266012 -8.75486324 4.61701287 -6.625 3.4375 C-6.02171875 3.09525391 -5.4184375 2.75300781 -4.796875 2.40039062 C-3.23021759 1.53872905 -1.61709138 0.76281817 0 0 Z " fill="#120C16" transform="translate(543,715)"/>
<path d="M0 0 C0.66 0 1.32 0 2 0 C0.66531206 3.45412296 -0.8258663 6.7601692 -2.5 10.0625 C-2.9228125 10.89910156 -3.345625 11.73570312 -3.78125 12.59765625 C-4.1834375 13.39042969 -4.585625 14.18320312 -5 15 C-5.66756863 16.33288197 -6.3345659 17.66605109 -7 19 C-7.66 19 -8.32 19 -9 19 C-8.42334609 14.2128572 -6.35917004 10.74871176 -3.9375 6.6875 C-3.56044922 6.04232422 -3.18339844 5.39714844 -2.79492188 4.73242188 C-1.86962507 3.15121848 -0.93567319 1.5750854 0 0 Z " fill="#171018" transform="translate(682,566)"/>
<path d="M0 0 C0.99 0.33 1.98 0.66 3 1 C3 1.66 3 2.32 3 3 C2.34 3 1.68 3 1 3 C-0.07525194 5.65228812 -1.09456151 8.28368454 -2 11 C-3.4375 12.5625 -3.4375 12.5625 -5 14 C-5.66 14.66 -6.32 15.32 -7 16 C-6.40165275 11.85701333 -4.99335715 8.81805623 -2.9375 5.1875 C-2.11572266 3.72376953 -2.11572266 3.72376953 -1.27734375 2.23046875 C-0.85582031 1.49441406 -0.43429687 0.75835938 0 0 Z " fill="#160C1A" transform="translate(517,609)"/>
<path d="M0 0 C0.66 0 1.32 0 2 0 C1.42415568 2.38564077 0.77772405 4.66682784 0 7 C0.33 7.66 0.66 8.32 1 9 C0.566875 9.391875 0.13375 9.78375 -0.3125 10.1875 C-2.26366224 12.28319278 -3.59010162 14.51589333 -5 17 C-6.36420006 12.90739982 -4.7664515 10.52987341 -3.0625 6.8125 C-2.77181641 6.15830078 -2.48113281 5.50410156 -2.18164062 4.83007812 C-1.46304657 3.21618656 -0.7326412 1.60756345 0 0 Z " fill="#1D1420" transform="translate(587,453)"/>
<path d="M0 0 C0.33 0.99 0.66 1.98 1 3 C1.66 3 2.32 3 3 3 C3 3.66 3 4.32 3 5 C4.27875 4.814375 5.5575 4.62875 6.875 4.4375 C10.75 3.875 10.75 3.875 13 5 C13.33 4.34 13.66 3.68 14 3 C14 4.65 14 6.3 14 8 C3.84682713 7.80743982 3.84682713 7.80743982 0.3125 4.4375 C-0.3371875 3.2309375 -0.3371875 3.2309375 -1 2 C-0.67 1.34 -0.34 0.68 0 0 Z " fill="#472330" transform="translate(741,388)"/>
<path d="M0 0 C3.16860855 2.65478014 4.50301588 5.83999806 6.1875 9.5625 C6.71730469 10.71878906 7.24710937 11.87507812 7.79296875 13.06640625 C9 16 9 16 9 18 C8.34 18 7.68 18 7 18 C6.67 16.35 6.34 14.7 6 13 C5.01 12.67 4.02 12.34 3 12 C2.87625 11.236875 2.7525 10.47375 2.625 9.6875 C2.11897208 6.79732864 2.11897208 6.79732864 0 4 C0 2.68 0 1.36 0 0 Z " fill="#210E1B" transform="translate(433,649)"/>
<path d="M0 0 C0.33 0 0.66 0 1 0 C1.42225625 6.96722813 -0.73739404 12.53853611 -5 18 C-5.66 18 -6.32 18 -7 18 C-5.06375702 11.79522136 -2.74390859 5.89174281 0 0 Z " fill="#261827" transform="translate(604,415)"/>
<path d="M0 0 C1.98 0 3.96 0 6 0 C5.45144652 4.571279 4.58255197 8.67435795 3 13 C1.89155081 9.67465243 2.15545644 7.37817425 3 4 C1.35 3.67 -0.3 3.34 -2 3 C-1.34 2.67 -0.68 2.34 0 2 C0 1.34 0 0.68 0 0 Z " fill="#9F9790" transform="translate(746,403)"/>
<path d="M0 0 C0.66 0 1.32 0 2 0 C1.41347648 4.48993869 0.2356462 8.22543184 -1.5625 12.375 C-2.01753906 13.43460937 -2.47257813 14.49421875 -2.94140625 15.5859375 C-3.29074219 16.38257813 -3.64007812 17.17921875 -4 18 C-4.33 18 -4.66 18 -5 18 C-5.21626619 14.10720861 -4.59656285 11.44538115 -3.0625 7.875 C-1.95126085 5.25422809 -0.90092352 2.70277057 0 0 Z " fill="#18141D" transform="translate(577,361)"/>
<path d="M0 0 C1.11721111 3.35163334 1.14607754 5.64363005 0 9 C-2.5625 11.8125 -2.5625 11.8125 -5 14 C-4.53411505 8.29290936 -3.06242216 4.84060277 0 0 Z " fill="#E6EAEE" transform="translate(695,485)"/>
<path d="M0 0 C0.66 0 1.32 0 2 0 C1.55397709 6.69034366 -1.07345542 12.02812122 -4 18 C-4.99 17.67 -5.98 17.34 -7 17 C-6.01 15.515 -6.01 15.515 -5 14 C-4.7834375 13.071875 -4.7834375 13.071875 -4.5625 12.125 C-4 10 -4 10 -2.5 7.5625 C-0.98228219 4.96973207 -0.42152861 2.95070024 0 0 Z " fill="#200E19" transform="translate(541,441)"/>
<path d="M0 0 C0.66 0 1.32 0 2 0 C1.43830039 4.62535356 0.17355197 8.16781851 -1.9375 12.3125 C-2.46214844 13.36050781 -2.98679687 14.40851563 -3.52734375 15.48828125 C-5 18 -5 18 -7 19 C-4.94235079 12.54646385 -2.57616518 6.2638737 0 0 Z " fill="#19101A" transform="translate(638,420)"/>
<path d="M0 0 C0.33 0 0.66 0 1 0 C1.63019694 8.03501094 1.63019694 8.03501094 -1 12.0625 C-1.66 12.701875 -2.32 13.34125 -3 14 C-4.26332183 9.78892722 -4.00441956 7.4543291 -2.0625 3.625 C-1.39025121 2.40811576 -0.70765749 1.1966397 0 0 Z " fill="#D3CFCD" transform="translate(733,406)"/>
<path d="M0 0 C0.70703125 1.55078125 0.70703125 1.55078125 1 4 C-0.00746282 6.52587382 -1.04862792 8.79909956 -2.3125 11.1875 C-2.63412109 11.82880859 -2.95574219 12.47011719 -3.28710938 13.13085938 C-5.71878332 17.85939166 -5.71878332 17.85939166 -8 19 C-8 17.68 -8 16.36 -8 15 C-7.34 15 -6.68 15 -6 15 C-5.81824219 14.41992188 -5.63648438 13.83984375 -5.44921875 13.2421875 C-3.9581894 8.60852707 -2.31666424 4.30237645 0 0 Z " fill="#1F1721" transform="translate(648,400)"/>
<path d="M0 0 C1 3 1 3 -0.43359375 6.35546875 C-1.09148807 7.6380304 -1.75989743 8.91524057 -2.4375 10.1875 C-2.77587891 10.84169922 -3.11425781 11.49589844 -3.46289062 12.16992188 C-4.29969098 13.78459299 -5.14869746 15.39292763 -6 17 C-7.18589057 13.30518449 -6.62016701 11.35624919 -4.96875 7.81640625 C-3.49959638 5.06174321 -1.8025137 2.54838143 0 0 Z " fill="#12111B" transform="translate(661,372)"/>
<path d="M0 0 C0.66 0 1.32 0 2 0 C1.52001432 5.03984962 -0.07173145 7.91817112 -3 12 C-3.69429379 13.3191582 -4.37530495 14.64649406 -5 16 C-5.66 16 -6.32 16 -7 16 C-6.57476184 14.39253944 -6.13429874 12.78910164 -5.6875 11.1875 C-5.44386719 10.29417969 -5.20023438 9.40085937 -4.94921875 8.48046875 C-3.96241923 5.90179511 -2.97745752 4.85022164 -1 3 C-0.67 2.01 -0.34 1.02 0 0 Z " fill="#14111B" transform="translate(588,339)"/>
<path d="M0 0 C0.66 0 1.32 0 2 0 C1.41892368 3.7602985 0.34800504 6.53035032 -1.5625 9.8125 C-2.01753906 10.60269531 -2.47257813 11.39289063 -2.94140625 12.20703125 C-3.29074219 12.79871094 -3.64007812 13.39039063 -4 14 C-4.66 14 -5.32 14 -6 14 C-4.7023817 8.70139194 -2.84984298 4.65474354 0 0 Z " fill="#130E18" transform="translate(595,324)"/>
<path d="M0 0 C1 3 1 3 -0.1875 6.0625 C-1.99216457 8.9873012 -2.82880497 9.90648447 -6 11 C-6.33 9.68 -6.66 8.36 -7 7 C-6.21625 6.401875 -5.4325 5.80375 -4.625 5.1875 C-1.85425677 3.08914751 -1.85425677 3.08914751 0 0 Z " fill="#D4D2D9" transform="translate(528,668)"/>
<path d="M0 0 C3 1 3 1 4.640625 3.6171875 C5.17171875 4.69226563 5.7028125 5.76734375 6.25 6.875 C6.79140625 7.94492187 7.3328125 9.01484375 7.890625 10.1171875 C9 13 9 13 8 16 C7.67 14.68 7.34 13.36 7 12 C6.34 12 5.68 12 5 12 C3.5393715 9.35261084 3 8.10551666 3 5 C2.34 5 1.68 5 1 5 C0.67 3.35 0.34 1.7 0 0 Z " fill="#E9E5E8" transform="translate(333,517)"/>
<path d="M0 0 C2 1.375 2 1.375 4 3 C4 3.66 4 4.32 4 5 C4.66 5 5.32 5 6 5 C6 6.98 6 8.96 6 11 C5.34 11 4.68 11 4 11 C4 10.01 4 9.02 4 8 C3.34 8 2.68 8 2 8 C-0.14720899 5.85279101 -0.5434221 4.92209857 -1 2 C-0.67 1.34 -0.34 0.68 0 0 Z " fill="#E6DFD4" transform="translate(512,322)"/>
<path d="M0 0 C2.03833424 1.2739589 4.03852126 2.61061923 6 4 C6 4.66 6 5.32 6 6 C6.99 6.33 7.98 6.66 9 7 C10.1875 9.0625 10.1875 9.0625 11 11 C5.67302761 9.54718935 2.63597198 5.91888622 -1 2 C-0.67 1.34 -0.34 0.68 0 0 Z " fill="#C5C6C6" transform="translate(465,706)"/>
<path d="M0 0 C3 1 3 1 4.421875 3.3984375 C4.86015625 4.38070312 5.2984375 5.36296875 5.75 6.375 C6.42289062 7.84066406 6.42289062 7.84066406 7.109375 9.3359375 C8 12 8 12 7 15 C4.66302971 12.66302971 3.72905946 10.50902101 2.375 7.5 C1.92898438 6.5203125 1.48296875 5.540625 1.0234375 4.53125 C0 2 0 2 0 0 Z " fill="#D8D4D8" transform="translate(494,596)"/>
<path d="M0 0 C2.32947183 2.11770166 3.88750845 4.03335588 5 7 C4.67 7.99 4.34 8.98 4 10 C2.68 9.67 1.36 9.34 0 9 C-1.125 2.25 -1.125 2.25 0 0 Z " fill="#897264" transform="translate(521,534)"/>
<path d="M0 0 C1 3 1 3 -0.21484375 5.91796875 C-0.78332031 6.99691406 -1.35179687 8.07585937 -1.9375 9.1875 C-2.50339844 10.27417969 -3.06929687 11.36085938 -3.65234375 12.48046875 C-4.09707031 13.31191406 -4.54179688 14.14335937 -5 15 C-6.37988943 12.24022114 -5.62402826 10.98021199 -4.75 8.0625 C-4.49734375 7.18722656 -4.2446875 6.31195313 -3.984375 5.41015625 C-2.98114635 2.95383848 -2.00031763 1.70251753 0 0 Z " fill="#19101F" transform="translate(696,478)"/>
<path d="M0 0 C4.43601966 3.51822249 5.52033129 7.75390186 7 13 C4 12 4 12 2.8125 9.9375 C2.544375 9.298125 2.27625 8.65875 2 8 C1.34 8 0.68 8 0 8 C0 5.36 0 2.72 0 0 Z " fill="#30111C" transform="translate(296,361)"/>
<path d="M0 0 C2.6459152 3.17509825 4.3604644 6.59027253 6.1328125 10.29296875 C6.88110726 11.9844947 6.88110726 11.9844947 8 13 C8.04063832 14.66617115 8.042721 16.33388095 8 18 C5.17921085 15.54318365 3.8440981 12.95225315 2.3125 9.5625 C1.87550781 8.61503906 1.43851562 7.66757812 0.98828125 6.69140625 C0 4 0 4 0 0 Z " fill="#220C1E" transform="translate(467,434)"/>
<path d="M0 0 C0.66 0 1.32 0 2 0 C2.83790789 1.78953185 3.67019396 3.58169695 4.5 5.375 C4.9640625 6.37273437 5.428125 7.37046875 5.90625 8.3984375 C7 11 7 11 7 13 C6.34 13 5.68 13 5 13 C4.67 11.68 4.34 10.36 4 9 C3.34 9 2.68 9 2 9 C0 7 0 7 -0.125 3.375 C-0.08375 2.26125 -0.0425 1.1475 0 0 Z " fill="#321A25" transform="translate(412,425)"/>
<path d="M0 0 C3.63 0 7.26 0 11 0 C11 1.98 11 3.96 11 6 C10.67 5.01 10.34 4.02 10 3 C8.906875 3.020625 7.81375 3.04125 6.6875 3.0625 C3 3 3 3 0 2 C0 1.34 0 0.68 0 0 Z " fill="#705D5C" transform="translate(742,398)"/>
<path d="M0 0 C7.26 0.33 14.52 0.66 22 1 C22 1.33 22 1.66 22 2 C19.43788925 2.19569589 16.87567609 2.38180612 14.3125 2.5625 C13.59126953 2.61857422 12.87003906 2.67464844 12.12695312 2.73242188 C8.25709571 2.9974806 4.7242933 3.18921029 1 2 C0.67 1.34 0.34 0.68 0 0 Z " fill="#090109" transform="translate(493,725)"/>
<path d="M0 0 C-0.33 0.66 -0.66 1.32 -1 2 C-5.91342287 2.87739694 -9.19372141 2.9859033 -14 2 C-14 1.34 -14 0.68 -14 0 C-12.41773035 -0.19627391 -10.83410729 -0.38165538 -9.25 -0.5625 C-8.36828125 -0.66691406 -7.4865625 -0.77132812 -6.578125 -0.87890625 C-4.11567549 -0.99456676 -2.33461936 -0.73638695 0 0 Z " fill="#CAC5C8" transform="translate(516,679)"/>
<path d="M0 0 C1.65 0 3.3 0 5 0 C4.59007812 0.51949219 4.18015625 1.03898437 3.7578125 1.57421875 C0.8834329 5.29440862 -1.38176867 8.54986383 -3 13 C-3.99 13.495 -3.99 13.495 -5 14 C-4.34580901 8.93001981 -2.1453591 4.58009223 0 0 Z " fill="#271723" transform="translate(563,316)"/>
<path d="M0 0 C0.33 0 0.66 0 1 0 C0.56826496 6.15222436 -0.65405342 9.81917949 -4 15 C-5.31223496 11.06329512 -4.24296256 8.87511856 -3 5 C-2.34 5 -1.68 5 -1 5 C-0.67 3.35 -0.34 1.7 0 0 Z " fill="#EBEDEF" transform="translate(664,467)"/>
<path d="M0 0 C1 3 1 3 -0.21484375 5.91796875 C-0.78332031 6.99691406 -1.35179687 8.07585937 -1.9375 9.1875 C-2.50339844 10.27417969 -3.06929687 11.36085938 -3.65234375 12.48046875 C-4.09707031 13.31191406 -4.54179688 14.14335937 -5 15 C-5.66 14.67 -6.32 14.34 -7 14 C-6.34 12.35 -5.68 10.7 -5 9 C-4.34 9 -3.68 9 -3 9 C-2.87625 8.071875 -2.7525 7.14375 -2.625 6.1875 C-2 3 -2 3 0 0 Z " fill="#1E111C" transform="translate(551,423)"/>
<path d="M0 0 C0.99 0.33 1.98 0.66 3 1 C0.86793788 5.67239145 -1.02502456 9.59287819 -5 13 C-4.39254603 8.14036821 -2.27241033 4.2594482 0 0 Z " fill="#210E19" transform="translate(647,322)"/>
<path d="M0 0 C0.99 0.33 1.98 0.66 3 1 C0.69 5.62 -1.62 10.24 -4 15 C-4.66 14.67 -5.32 14.34 -6 14 C-4.50829734 9.0276578 -2.39542583 4.58154261 0 0 Z " fill="#3B2831" transform="translate(706,276)"/>
<path d="M0 0 C3.84505643 1.28168548 4.21363291 2.42726581 6 6 C6.72166191 8.31691454 7.40059529 10.64848923 8 13 C7.01 13.495 7.01 13.495 6 14 C4.99770632 11.85521084 3.99807145 9.70925278 3 7.5625 C2.1646875 5.77005859 2.1646875 5.77005859 1.3125 3.94140625 C0 1 0 1 0 0 Z " fill="#CBC9CE" transform="translate(444,670)"/>
<path d="M0 0 C0.66 0.33 1.32 0.66 2 1 C-0.41337795 5.82675589 -3.86062408 8.69984002 -8 12 C-7.41463247 8.33939179 -5.916761 6.45464836 -3.4375 3.75 C-2.79683594 3.04359375 -2.15617188 2.3371875 -1.49609375 1.609375 C-0.75552734 0.81273437 -0.75552734 0.81273437 0 0 Z " fill="#1F1B21" transform="translate(647,631)"/>
<path d="M0 0 C2.62901914 2.35838482 4.14649342 4.80122977 5.75 7.9375 C6.19859375 8.79214844 6.6471875 9.64679687 7.109375 10.52734375 C8.08377402 13.23258313 8.00579304 14.35672682 7 17 C0 3.24137931 0 3.24137931 0 0 Z " fill="#240A18" transform="translate(406,594)"/>
<path d="M0 0 C3.32983051 2.69557708 4.54451694 6.04940313 6 10 C6 11.32 6 12.64 6 14 C5.34 13.67 4.68 13.34 4 13 C3.26924352 10.6859378 2.59861742 8.35171131 2 6 C1.34 6 0.68 6 0 6 C0 4.02 0 2.04 0 0 Z " fill="#2B101F" transform="translate(348,471)"/>
<path d="M0 0 C2.47186455 2.96346786 3.66248361 5.54041689 4.6875 9.25 C4.93886719 10.14203125 5.19023437 11.0340625 5.44921875 11.953125 C5.72185547 12.96632813 5.72185547 12.96632813 6 14 C5.34 14.66 4.68 15.32 4 16 C3.79503906 15.36191406 3.59007812 14.72382813 3.37890625 14.06640625 C3.10949219 13.24011719 2.84007812 12.41382813 2.5625 11.5625 C2.29566406 10.73878906 2.02882813 9.91507812 1.75390625 9.06640625 C1.17844506 7.03780412 1.17844506 7.03780412 0 6 C-0.04080783 4.00041636 -0.04254356 1.99954746 0 0 Z " fill="#301F2C" transform="translate(282,457)"/>
<path d="M0 0 C0.33 0 0.66 0 1 0 C1.125 2.375 1.125 2.375 1 5 C0.34 5.66 -0.32 6.32 -1 7 C-1.71927295 9.31765729 -2.3909893 11.65095874 -3 14 C-3.66 14 -4.32 14 -5 14 C-4.53411505 8.29290936 -3.06242216 4.84060277 0 0 Z " fill="#231223" transform="translate(618,386)"/>
<path d="M0 0 C0.33 0 0.66 0 1 0 C1.31057116 5.43499526 -0.54365046 9.26275446 -3 14 C-3.66 13.01 -4.32 12.02 -5 11 C-4.1015625 8.30078125 -4.1015625 8.30078125 -2.625 5.3125 C-2.14289062 4.31863281 -1.66078125 3.32476563 -1.1640625 2.30078125 C-0.77992188 1.54152344 -0.39578125 0.78226563 0 0 Z " fill="#D1CDD5" transform="translate(581,549)"/>
<path d="M0 0 C0.33 0 0.66 0 1 0 C1.36972539 7.5177495 1.36972539 7.5177495 -0.4375 9.875 C-0.953125 10.24625 -1.46875 10.6175 -2 11 C-2.33 11.66 -2.66 12.32 -3 13 C-3.66 13 -4.32 13 -5 13 C-4.54554036 11.58208592 -4.08625056 10.16571954 -3.625 8.75 C-3.24214844 7.56664062 -3.24214844 7.56664062 -2.8515625 6.359375 C-2.04826333 4.13372042 -1.10288338 2.09068328 0 0 Z " fill="#DEDBE2" transform="translate(523,487)"/>
<path d="M0 0 C0.33 0.66 0.66 1.32 1 2 C-0.07518118 4.44332726 -1.19808566 6.76754523 -2.4375 9.125 C-2.77587891 9.78371094 -3.11425781 10.44242187 -3.46289062 11.12109375 C-4.30149926 12.75106547 -5.14984811 14.37601909 -6 16 C-7 14 -7 14 -6.51171875 11.87109375 C-6.23972656 11.06800781 -5.96773437 10.26492188 -5.6875 9.4375 C-5.42324219 8.63183594 -5.15898438 7.82617188 -4.88671875 6.99609375 C-4 5 -4 5 -2 4 C-0.86649466 1.98330173 -0.86649466 1.98330173 0 0 Z " fill="#1D0F1B" transform="translate(559,406)"/>
<path d="M0 0 C1.65 0 3.3 0 5 0 C5.33 0.66 5.66 1.32 6 2 C5.21625 2.2475 4.4325 2.495 3.625 2.75 C0.67682892 4.15389099 0.0975223 5.00675737 -1 8 C-1.99 8 -2.98 8 -4 8 C-4.33 8.66 -4.66 9.32 -5 10 C-5 9.01 -5 8.02 -5 7 C-4.01 7 -3.02 7 -2 7 C-1.34 4.69 -0.68 2.38 0 0 Z " fill="#7F4850" transform="translate(252,354)"/>
<path d="M0 0 C0 0.99 0 1.98 0 3 C-6.5 7 -6.5 7 -11 7 C-11 6.01 -11 5.02 -11 4 C-10.29875 3.896875 -9.5975 3.79375 -8.875 3.6875 C-5.60862353 2.90640997 -2.9528148 1.57941257 0 0 Z " fill="#4A2F41" transform="translate(415,684)"/>
<path d="M0 0 C5.53753445 3.93456395 6.87888742 7.46017664 8 14 C4.96130589 12.48065294 4.35589694 10.01995228 3 7 C3 6.34 3 5.68 3 5 C2.34 5 1.68 5 1 5 C0.67 3.35 0.34 1.7 0 0 Z " fill="#978C82" transform="translate(518,527)"/>
<path d="M0 0 C0.33 0 0.66 0 1 0 C1.22893297 3.03336186 1.36475845 5.97465051 1 9 C-1 11.0625 -1 11.0625 -3 12 C-4.21386936 8.35839192 -3.6674695 7.66834531 -2.0625 4.3125 C-1.49208984 3.10013672 -1.49208984 3.10013672 -0.91015625 1.86328125 C-0.60980469 1.24839844 -0.30945313 0.63351562 0 0 Z " fill="#D1D2DA" transform="translate(591,527)"/>
<path d="M0 0 C2.35716404 2.15454249 3.78966144 4.19719874 5.1875 7.0625 C5.53167969 7.75472656 5.87585938 8.44695312 6.23046875 9.16015625 C7 11 7 11 7 13 C6.34 13 5.68 13 5 13 C4.67 12.01 4.34 11.02 4 10 C3.01 9.34 2.02 8.68 1 8 C0.29947539 5.336937 0.22255182 2.75964263 0 0 Z " fill="#2C1324" transform="translate(355,486)"/>
<path d="M0 0 C0.66 0 1.32 0 2 0 C1.50769231 6.4 1.50769231 6.4 -1.0625 9.4375 C-1.701875 9.953125 -2.34125 10.46875 -3 11 C-2.53199289 6.94393835 -2.12046792 3.53411321 0 0 Z " fill="#1B0E1A" transform="translate(514,423)"/>
<path d="M0 0 C0.66 0 1.32 0 2 0 C2.33 1.32 2.66 2.64 3 4 C2.01 4.66 1.02 5.32 0 6 C-1.21418833 7.9466071 -1.21418833 7.9466071 -2.1875 10.125 C-2.53167969 10.84945312 -2.87585938 11.57390625 -3.23046875 12.3203125 C-3.48441406 12.87460937 -3.73835937 13.42890625 -4 14 C-5.305239 10.08428299 -4.32239848 8.96107003 -2.5625 5.3125 C-2.08941406 4.31863281 -1.61632812 3.32476563 -1.12890625 2.30078125 C-0.75636719 1.54152344 -0.38382813 0.78226563 0 0 Z " fill="#19101F" transform="translate(605,599)"/>
<path d="M0 0 C1 3 1 3 0.00390625 5.48046875 C-0.47175781 6.37378906 -0.94742188 7.26710938 -1.4375 8.1875 C-1.91058594 9.08855469 -2.38367188 9.98960937 -2.87109375 10.91796875 C-3.24363281 11.60503906 -3.61617187 12.29210937 -4 13 C-5.13330997 9.24092256 -4.65120922 7.57761997 -3 4 C-2.67 3.01 -2.34 2.02 -2 1 C-1.34 0.67 -0.68 0.34 0 0 Z " fill="#1C0E1D" transform="translate(566,580)"/>
<path d="M0 0 C1 3 1 3 0.00390625 5.26171875 C-0.47175781 6.06222656 -0.94742188 6.86273438 -1.4375 7.6875 C-2.14712891 8.89986328 -2.14712891 8.89986328 -2.87109375 10.13671875 C-3.24363281 10.75160156 -3.61617187 11.36648438 -4 12 C-4.66 11.01 -5.32 10.02 -6 9 C-5.525625 8.236875 -5.05125 7.47375 -4.5625 6.6875 C-2.89893903 4.03589452 -2.89893903 4.03589452 -2 1 C-1.34 0.67 -0.68 0.34 0 0 Z " fill="#180B19" transform="translate(606,492)"/>
<path d="M0 0 C0.99 0.33 1.98 0.66 3 1 C3.5625 2.8125 3.5625 2.8125 4 5 C4.350625 5.680625 4.70125 6.36125 5.0625 7.0625 C6 9 6 9 6 12 C5.34 12 4.68 12 4 12 C3.32332002 10.75539217 2.65905281 9.50403104 2 8.25 C1.62875 7.55390625 1.2575 6.8578125 0.875 6.140625 C0 4 0 4 0 0 Z " fill="#1C0E20" transform="translate(489,481)"/>
<path d="M0 0 C0.66 0 1.32 0 2 0 C2.33 0.99 2.66 1.98 3 3 C2.34 3 1.68 3 1 3 C0.5978125 4.7015625 0.5978125 4.7015625 0.1875 6.4375 C-0.204375 7.613125 -0.59625 8.78875 -1 10 C-1.99 10.33 -2.98 10.66 -4 11 C-3.52269162 9.5410574 -3.04308958 8.08286504 -2.5625 6.625 C-2.29566406 5.81289063 -2.02882813 5.00078125 -1.75390625 4.1640625 C-1 2 -1 2 0 0 Z " fill="#DEDBE1" transform="translate(541,448)"/>
<path d="M0 0 C3.17218843 3.62535821 4.42902597 7.51150278 6 12 C5.01 12 4.02 12 3 12 C2.49166409 10.75336669 1.99368855 9.50250613 1.5 8.25 C1.2215625 7.55390625 0.943125 6.8578125 0.65625 6.140625 C0 4 0 4 0 0 Z " fill="#E5E0E3" transform="translate(358,567)"/>
<path d="M0 0 C0.33 0.99 0.66 1.98 1 3 C1.66 3 2.32 3 3 3 C2.54917531 4.46067199 2.08906463 5.91848032 1.625 7.375 C1.36976563 8.18710937 1.11453125 8.99921875 0.8515625 9.8359375 C0 12 0 12 -2 14 C-2.33 12.02 -2.66 10.04 -3 8 C-2.01 8 -1.02 8 0 8 C0 5.36 0 2.72 0 0 Z " fill="#918C93" transform="translate(532,562)"/>
<path d="M0 0 C0.99 0.495 0.99 0.495 2 1 C2.34022786 2.99883869 2.67329097 4.99890722 3 7 C3.66 7.66 4.32 8.32 5 9 C4.67 9.66 4.34 10.32 4 11 C3.01 11 2.02 11 1 11 C-0.28317892 7.15046324 -0.06643637 4.05261865 0 0 Z " fill="#A8A6A4" transform="translate(532,554)"/>
<path d="M0 0 C0.33 0 0.66 0 1 0 C0.50269348 4.97306516 -0.55302334 8.63799813 -3 13 C-3.66 13 -4.32 13 -5 13 C-4.54554036 11.58208592 -4.08625056 10.16571954 -3.625 8.75 C-3.24214844 7.56664062 -3.24214844 7.56664062 -2.8515625 6.359375 C-2.04826333 4.13372042 -1.10288338 2.09068328 0 0 Z " fill="#2C212D" transform="translate(572,485)"/>
<path d="M0 0 C0.66 0.66 1.32 1.32 2 2 C0.35 5.3 -1.3 8.6 -3 12 C-4.22400998 7.10396009 -3.17036065 5.42419671 -1 1 C-0.67 0.67 -0.34 0.34 0 0 Z " fill="#C2C3C7" transform="translate(571,669)"/>
<path d="M0 0 C3 0 3 0 5 1 C4.34 2.98 3.68 4.96 3 7 C2.34 7 1.68 7 1 7 C0.34 5.02 -0.32 3.04 -1 1 C-0.67 0.67 -0.34 0.34 0 0 Z " fill="#DBDADE" transform="translate(506,619)"/>
<path d="M0 0 C0.99 0.495 0.99 0.495 2 1 C2 1.66 2 2.32 2 3 C2.78375 3.268125 3.5675 3.53625 4.375 3.8125 C7 5 7 5 9 8 C8.625 10.1875 8.625 10.1875 8 12 C7.5875 11.21625 7.175 10.4325 6.75 9.625 C5.25864002 6.8982047 5.25864002 6.8982047 2.875 6 C2.25625 5.67 1.6375 5.34 1 5 C0.25 2.375 0.25 2.375 0 0 Z " fill="#6D4D45" transform="translate(518,542)"/>
<path d="M0 0 C0.66 0.33 1.32 0.66 2 1 C2 2.32 2 3.64 2 5 C1.01 5.66 0.02 6.32 -1 7 C-2.19232613 9.05003955 -2.19232613 9.05003955 -3 11 C-3.75 9.4375 -3.75 9.4375 -4 7 C-2.86915563 4.49713591 -1.47860484 2.32992278 0 0 Z " fill="#130B12" transform="translate(694,542)"/>
<path d="M0 0 C1 3 1 3 0.00390625 5.26171875 C-0.47175781 6.06222656 -0.94742188 6.86273438 -1.4375 7.6875 C-2.14712891 8.89986328 -2.14712891 8.89986328 -2.87109375 10.13671875 C-3.24363281 10.75160156 -3.61617187 11.36648438 -4 12 C-4.66 10.68 -5.32 9.36 -6 8 C-4.02 5.36 -2.04 2.72 0 0 Z " fill="#1A0E19" transform="translate(614,475)"/>
<path d="M0 0 C0.33 0 0.66 0 1 0 C0.49770926 4.26947129 0.02851102 8.16836808 -2 12 C-2.99 12.33 -3.98 12.66 -5 13 C-4.54554036 11.58208592 -4.08625056 10.16571954 -3.625 8.75 C-3.24214844 7.56664062 -3.24214844 7.56664062 -2.8515625 6.359375 C-2.04826333 4.13372042 -1.10288338 2.09068328 0 0 Z " fill="#E1DDE3" transform="translate(556,415)"/>
<path d="M0 0 C0.33 0 0.66 0 1 0 C1.29162929 4.95769796 1.12940055 8.02806853 -2 12 C-2.66 12 -3.32 12 -4 12 C-3.33501617 7.61110675 -1.81242323 4.0188515 0 0 Z " fill="#2A202E" transform="translate(626,366)"/>
<path d="M0 0 C0.33 0.66 0.66 1.32 1 2 C-5.435 3.98 -5.435 3.98 -12 6 C-11.67 5.01 -11.34 4.02 -11 3 C-10.01 3.33 -9.02 3.66 -8 4 C-8 3.34 -8 2.68 -8 2 C-4.77208445 -0.1519437 -3.71599191 -0.20086443 0 0 Z " fill="#A37C7C" transform="translate(260,360)"/>
<path d="M0 0 C0.66 0.33 1.32 0.66 2 1 C1.56802365 5.7517398 0.67230705 7.92000054 -3 11 C-2.32829194 7.1936543 -1.27253436 3.64793184 0 0 Z " fill="#190E1E" transform="translate(684,320)"/>
<path d="M0 0 C0.66 0 1.32 0 2 0 C2.50403768 1.29009643 3.00309926 2.58213789 3.5 3.875 C3.7784375 4.59429688 4.056875 5.31359375 4.34375 6.0546875 C5 8 5 8 5 10 C4.34 10 3.68 10 3 10 C0.96564469 6.27034861 0 4.33094958 0 0 Z " fill="#645051" transform="translate(512,530)"/>
<path d="M0 0 C0.99 0.33 1.98 0.66 3 1 C0 8.57142857 0 8.57142857 -3 11 C-2.44894091 7.0507432 -1.61064629 3.65079826 0 0 Z " fill="#19101C" transform="translate(561,508)"/>
<path d="M0 0 C2.94995547 3.45856848 5.22675738 6.80021485 7 11 C6.67 11.66 6.34 12.32 6 13 C0.44419134 4.738041 0.44419134 4.738041 0 0 Z " fill="#1F111F" transform="translate(496,496)"/>
<path d="M0 0 C3 1 3 1 4.203125 2.9609375 C4.54859375 3.75757813 4.8940625 4.55421875 5.25 5.375 C5.60578125 6.16648437 5.9615625 6.95796875 6.328125 7.7734375 C7 10 7 10 6 13 C5.67 11.68 5.34 10.36 5 9 C4.34 9 3.68 9 3 9 C2.690625 7.88625 2.38125 6.7725 2.0625 5.625 C1.17673517 2.2054845 1.17673517 2.2054845 0 0 Z " fill="#EFEAED" transform="translate(390,462)"/>
<path d="M0 0 C3.17218843 3.62535821 4.42902597 7.51150278 6 12 C5.01 11.67 4.02 11.34 3 11 C2.67 9.35 2.34 7.7 2 6 C1.34 6 0.68 6 0 6 C0 4.02 0 2.04 0 0 Z " fill="#E5DFE6" transform="translate(467,438)"/>
<path d="M0 0 C0.33 0.66 0.66 1.32 1 2 C1.66 2.33 2.32 2.66 3 3 C2.566875 3.350625 2.13375 3.70125 1.6875 4.0625 C-0.68358456 6.78485635 -1.6716835 9.64758216 -3 13 C-3.93045933 10.44855176 -4.08564091 9.25993522 -3.22265625 6.640625 C-2.83980469 5.85171875 -2.45695313 5.0628125 -2.0625 4.25 C-1.68222656 3.45078125 -1.30195312 2.6515625 -0.91015625 1.828125 C-0.60980469 1.22484375 -0.30945313 0.6215625 0 0 Z " fill="#261C27" transform="translate(681,435)"/>
<path d="M0 0 C3.47917182 2.31944788 4.29429766 4.26369964 6 8 C5.01 8.99 4.02 9.98 3 11 C2.49384702 9.73160474 1.99530901 8.46016898 1.5 7.1875 C1.2215625 6.47980469 0.943125 5.77210938 0.65625 5.04296875 C0 3 0 3 0 0 Z " fill="#EEE9ED" transform="translate(494,411)"/>
<path d="M0 0 C0.33 0 0.66 0 1 0 C1.35338623 2.96844435 1.5417682 5.15598218 -0.11328125 7.734375 C-1.35503168 9.20348819 -2.67337918 10.60704814 -4 12 C-4.33 11.34 -4.66 10.68 -5 10 C-4.00390625 7.6171875 -4.00390625 7.6171875 -2.5625 4.875 C-1.85287109 3.50988281 -1.85287109 3.50988281 -1.12890625 2.1171875 C-0.75636719 1.41851562 -0.38382813 0.71984375 0 0 Z " fill="#302533" transform="translate(701,392)"/>
<path d="M0 0 C0.66 0 1.32 0 2 0 C3 3 3 3 2.22265625 5.04296875 C1.83980469 5.75066406 1.45695313 6.45835937 1.0625 7.1875 C0.68222656 7.90292969 0.30195312 8.61835938 -0.08984375 9.35546875 C-0.54037109 10.16951172 -0.54037109 10.16951172 -1 11 C-1.33 11 -1.66 11 -2 11 C-2 8.69 -2 6.38 -2 4 C-1.34 4 -0.68 4 0 4 C0 2.68 0 1.36 0 0 Z " fill="#382933" transform="translate(615,280)"/>
<path d="M0 0 C0.99 0.33 1.98 0.66 3 1 C1.68 3.64 0.36 6.28 -1 9 C-1.66 8.67 -2.32 8.34 -3 8 C-1.125 2.25 -1.125 2.25 0 0 Z " fill="#BEC0C5" transform="translate(564,682)"/>
<path d="M0 0 C-5.15664556 2.76248869 -9.12905966 3.1129027 -15 3 C-14.34 2.01 -13.68 1.02 -13 0 C-13 0.66 -13 1.32 -13 2 C-11.96875 1.484375 -10.9375 0.96875 -9.875 0.4375 C-6.26947626 -1.13395026 -3.84321557 -1.03110662 0 0 Z " fill="#ACB8B3" transform="translate(632,645)"/>
<path d="M0 0 C4.92307692 4.30769231 4.92307692 4.30769231 5.3125 7.8125 C5.209375 8.534375 5.10625 9.25625 5 10 C4.34 10 3.68 10 3 10 C-0.22265625 4.82421875 -0.22265625 4.82421875 -1 3 C-0.67 2.01 -0.34 1.02 0 0 Z " fill="#281528" transform="translate(391,628)"/>
<path d="M0 0 C0.66 0 1.32 0 2 0 C1.54663921 4.87362847 0.2910841 7.39042389 -3 11 C-3.33 10.34 -3.66 9.68 -4 9 C-3.22265625 6.8359375 -3.22265625 6.8359375 -2.0625 4.375 C-1.68222656 3.55773437 -1.30195312 2.74046875 -0.91015625 1.8984375 C-0.60980469 1.27195312 -0.30945313 0.64546875 0 0 Z " fill="#170E1D" transform="translate(598,614)"/>
<path d="M0 0 C0.66 0 1.32 0 2 0 C1.42365861 4.75481646 -0.55068521 7.97048212 -3 12 C-4 10 -4 10 -3.22265625 7.6171875 C-2.83980469 6.71226562 -2.45695313 5.80734375 -2.0625 4.875 C-1.68222656 3.96492187 -1.30195312 3.05484375 -0.91015625 2.1171875 C-0.60980469 1.41851563 -0.30945313 0.71984375 0 0 Z " fill="#180916" transform="translate(581,544)"/>
<path d="M0 0 C1.32 0 2.64 0 4 0 C4.33 0.66 4.66 1.32 5 2 C7.02463255 2.65213292 7.02463255 2.65213292 9 3 C8.67 4.32 8.34 5.64 8 7 C1.66666667 3.33333333 1.66666667 3.33333333 0 0 Z " fill="#806156" transform="translate(517,541)"/>
<path d="M0 0 C1.65 0 3.3 0 5 0 C5.66 1.32 6.32 2.64 7 4 C4.33333333 4 1.66666667 4 -1 4 C-0.67 2.68 -0.34 1.36 0 0 Z " fill="#897B74" transform="translate(511,524)"/>
<path d="M0 0 C0.33 0 0.66 0 1 0 C0.67 2.97 0.34 5.94 0 9 C-0.99 9.33 -1.98 9.66 -3 10 C-2.25 3.375 -2.25 3.375 0 0 Z " fill="#180C1B" transform="translate(732,460)"/>
<path d="M0 0 C0.99 0 1.98 0 3 0 C2.46884894 4.51478398 0.63379708 7.34666857 -2 11 C-2.66 10.34 -3.32 9.68 -4 9 C-3.34 9 -2.68 9 -2 9 C-0.55475116 4.57394994 -0.55475116 4.57394994 0 0 Z " fill="#150D15" transform="translate(709,449)"/>
<path d="M0 0 C2.87121002 2.69427271 4.3882549 5.39276097 6 9 C6 9.66 6 10.32 6 11 C4.078125 10.2890625 4.078125 10.2890625 2 9 C1.171875 6.8359375 1.171875 6.8359375 0.75 4.375 C0.60046875 3.55773437 0.4509375 2.74046875 0.296875 1.8984375 C0.19890625 1.27195312 0.1009375 0.64546875 0 0 Z " fill="#331926" transform="translate(406,412)"/>
<path d="M0 0 C0.66 0.66 1.32 1.32 2 2 C1 3 1 3 -2.0625 3.0625 C-3.031875 3.041875 -4.00125 3.02125 -5 3 C-5 3.66 -5 4.32 -5 5 C-6.65 5 -8.3 5 -10 5 C-9.67 4.01 -9.34 3.02 -9 2 C-6.03 2 -3.06 2 0 2 C0 1.34 0 0.68 0 0 Z " fill="#BCA6A1" transform="translate(261,364)"/>
<path d="M0 0 C2.97246802 2.54782974 4.41535288 5.45340883 6 9 C6 9.66 6 10.32 6 11 C5.34 11 4.68 11 4 11 C0 4.5 0 4.5 0 0 Z " fill="#2F111B" transform="translate(266,298)"/>
<path d="M0 0 C0.33 0 0.66 0 1 0 C1 1.98 1 3.96 1 6 C-2.3 6.66 -5.6 7.32 -9 8 C-9 7.34 -9 6.68 -9 6 C-8.15115234 5.72736328 -8.15115234 5.72736328 -7.28515625 5.44921875 C-6.55167969 5.19785156 -5.81820313 4.94648437 -5.0625 4.6875 C-3.96615234 4.32205078 -3.96615234 4.32205078 -2.84765625 3.94921875 C-0.64067976 3.08759559 -0.64067976 3.08759559 0 0 Z " fill="#8B838D" transform="translate(412,676)"/>
<path d="M0 0 C0.66 0.33 1.32 0.66 2 1 C2 4.10551666 1.4606285 5.35261084 0 8 C-0.99 8 -1.98 8 -3 8 C-1.125 2.25 -1.125 2.25 0 0 Z " fill="#CFD0D3" transform="translate(550,619)"/>
<path d="M0 0 C1.32 0 2.64 0 4 0 C5.35439668 2.70879335 5.06501451 5.00933268 5 8 C2.27573689 5.64722731 1.1858237 3.37503669 0 0 Z " fill="#564140" transform="translate(524,559)"/>
<path d="M0 0 C0.33 0.66 0.66 1.32 1 2 C-0.21484375 4.3828125 -0.21484375 4.3828125 -1.9375 7.125 C-2.50339844 8.03507813 -3.06929687 8.94515625 -3.65234375 9.8828125 C-4.09707031 10.58148437 -4.54179688 11.28015625 -5 12 C-5.68359375 10.265625 -5.68359375 10.265625 -6 8 C-4.78515625 5.859375 -4.78515625 5.859375 -3.0625 3.75 C-2.49660156 3.04359375 -1.93070313 2.3371875 -1.34765625 1.609375 C-0.90292969 1.07828125 -0.45820312 0.5471875 0 0 Z " fill="#180F1B" transform="translate(631,547)"/>
<path d="M0 0 C3 1 3 1 4.75 3.875 C6 7 6 7 5 10 C2.35534962 6.8745041 1.15585285 3.91211733 0 0 Z " fill="#290E1A" transform="translate(374,528)"/>
<path d="M0 0 C0.66 0 1.32 0 2 0 C1.55090939 1.48199902 1.09043436 2.96055236 0.625 4.4375 C0.36976563 5.26121094 0.11453125 6.08492187 -0.1484375 6.93359375 C-1 9 -1 9 -3 10 C-2.25 3.375 -2.25 3.375 0 0 Z " fill="#DAD7DB" transform="translate(551,526)"/>
<path d="M0 0 C-3.28463659 2.18975773 -6.20696275 2.99806563 -10 4 C-10.66 3.01 -11.32 2.02 -12 1 C-7.95858806 0.36605303 -4.0934693 -0.12404452 0 0 Z " fill="#A09DA2" transform="translate(411,679)"/>
<path d="M0 0 C1 2 1 2 0.22265625 4.3828125 C-0.16019531 5.28773438 -0.54304687 6.19265625 -0.9375 7.125 C-1.31777344 8.03507813 -1.69804688 8.94515625 -2.08984375 9.8828125 C-2.39019531 10.58148437 -2.69054687 11.28015625 -3 12 C-3.33 12 -3.66 12 -4 12 C-3.5317879 7.22423661 -2.75668002 3.95523655 0 0 Z " fill="#19131E" transform="translate(582,651)"/>
<path d="M0 0 C1.86551426 3.58752742 3.42535928 7.27812193 5 11 C2 10 2 10 1.015625 8.22265625 C0.76296875 7.50980469 0.5103125 6.79695312 0.25 6.0625 C-0.01296875 5.35222656 -0.2759375 4.64195312 -0.546875 3.91015625 C-1 2 -1 2 0 0 Z " fill="#221421" transform="translate(463,608)"/>
<path d="M0 0 C2.50298434 2.93828597 3.46930939 5.17902761 4 9 C3.01 8.34 2.02 7.68 1 7 C1 6.34 1 5.68 1 5 C0.34 5 -0.32 5 -1 5 C-1.33 4.01 -1.66 3.02 -2 2 C-1.34 1.34 -0.68 0.68 0 0 Z " fill="#D4D5D6" transform="translate(518,545)"/>
<path d="M0 0 C3.64775386 3.88309282 4.58525633 6.71201818 5 12 C1.75254486 7.86687528 0 5.36067372 0 0 Z " fill="#3F2028" transform="translate(310,461)"/>
<path d="M0 0 C4.92307692 4.30769231 4.92307692 4.30769231 5.3125 7.8125 C5.209375 8.534375 5.10625 9.25625 5 10 C3 7 3 7 3 5 C1.68 4.67 0.36 4.34 -1 4 C-0.67 2.68 -0.34 1.36 0 0 Z " fill="#260E17" transform="translate(497,424)"/>
<path d="M0 0 C0.33 0.66 0.66 1.32 1 2 C1.66 2 2.32 2 3 2 C3.66 4.97 4.32 7.94 5 11 C2.13888288 8.13888288 1.2084996 6.7184603 0 3 C0 2.01 0 1.02 0 0 Z " fill="#8D8178" transform="translate(520,364)"/>
<path d="M0 0 C2 2 2 2 3 5 C3.66 5.33 4.32 5.66 5 6 C5 7.98 5 9.96 5 12 C1.75254486 7.86687528 0 5.36067372 0 0 Z " fill="#220B18" transform="translate(502,326)"/>
<path d="M0 0 C2.32947183 2.11770166 3.88750845 4.03335588 5 7 C4.67 7.99 4.34 8.98 4 10 C0 4.5 0 4.5 0 0 Z " fill="#31101C" transform="translate(454,330)"/>
<path d="M0 0 C0.66 0.99 1.32 1.98 2 3 C1.5390625 5.04296875 1.5390625 5.04296875 0.625 7.1875 C0.32851563 7.90292969 0.03203125 8.61835938 -0.2734375 9.35546875 C-0.51320313 9.89816406 -0.75296875 10.44085938 -1 11 C-1.33 11 -1.66 11 -2 11 C-2.25 3.375 -2.25 3.375 0 0 Z " fill="#554148" transform="translate(521,298)"/>
<path d="M0 0 C0.68707555 2.49064888 1 4.37886292 1 7 C-0.98 7.99 -0.98 7.99 -3 9 C-3.33 8.34 -3.66 7.68 -4 7 C-3.22265625 5.2734375 -3.22265625 5.2734375 -2.0625 3.375 C-1.381875 2.26125 -0.70125 1.1475 0 0 Z " fill="#220E17" transform="translate(663,290)"/>
<path d="M0 0 C0.66 0 1.32 0 2 0 C1.42647107 3.87132028 -0.48704352 6.08172796 -3 9 C-2.5020163 5.26512223 -2.12508244 3.18762365 0 0 Z " fill="#270A15" transform="translate(585,271)"/>
<path d="M0 0 C0.33 0.66 0.66 1.32 1 2 C1.66 2 2.32 2 3 2 C3.33 4.64 3.66 7.28 4 10 C1.2027092 7.93243723 0.97307727 6.85559629 0.3125 3.3125 C0.209375 2.219375 0.10625 1.12625 0 0 Z " fill="#1D0D1D" transform="translate(485,656)"/>
<path d="M0 0 C0.33 1.32 0.66 2.64 1 4 C1.66 4 2.32 4 3 4 C3.66 6.31 4.32 8.62 5 11 C4.34 11 3.68 11 3 11 C1.68 7.7 0.36 4.4 -1 1 C-0.67 0.67 -0.34 0.34 0 0 Z " fill="#201124" transform="translate(444,569)"/>
<path d="M0 0 C0.99 0.33 1.98 0.66 3 1 C2.25 3.9375 2.25 3.9375 1 7 C-0.32 7.33 -1.64 7.66 -3 8 C-2.01 5.36 -1.02 2.72 0 0 Z " fill="#E5E4E9" transform="translate(529,474)"/>
<path d="M0 0 C1.32 0.33 2.64 0.66 4 1 C3 4 3 4 0.9375 5.1875 C0.298125 5.455625 -0.34125 5.72375 -1 6 C-1 2 -1 2 0 0 Z " fill="#E9EFEE" transform="translate(709,456)"/>
<path d="M0 0 C-0.57344937 2.86724686 -0.8614515 3.8614515 -3 6 C-5.125 5.625 -5.125 5.625 -7 5 C-6.34 4.34 -5.68 3.68 -5 3 C-4.505 2.46375 -4.01 1.9275 -3.5 1.375 C-2 0 -2 0 0 0 Z " fill="#1E0C19" transform="translate(511,435)"/>
<path d="M0 0 C1 3 1 3 -0.4375 6.1875 C-1.2109375 7.5796875 -1.2109375 7.5796875 -2 9 C-2.33 9 -2.66 9 -3 9 C-3.36923077 3.46153846 -3.36923077 3.46153846 -1.5 1.125 C-1.005 0.75375 -0.51 0.3825 0 0 Z " fill="#F8F3F8" transform="translate(688,416)"/>
<path d="M0 0 C0.66 0 1.32 0 2 0 C0.84414715 3.91211733 -0.35534962 6.8745041 -3 10 C-2.25 3.375 -2.25 3.375 0 0 Z " fill="#220D19" transform="translate(656,304)"/>
<path d="M0 0 C3.3 0 6.6 0 10 0 C8.515 1.485 8.515 1.485 7 3 C3.3125 2.6875 3.3125 2.6875 0 2 C0 1.34 0 0.68 0 0 Z " fill="#501D2C" transform="translate(716,260)"/>
<path d="M0 0 C3.46941546 0.45822468 6.67395049 0.89131683 10 2 C10 2.66 10 3.32 10 4 C5.78087253 3.5205537 3.20336822 2.83374881 0 0 Z " fill="#B4B4B7" transform="translate(480,719)"/>
<path d="M0 0 C0.99 0.33 1.98 0.66 3 1 C3 1.66 3 2.32 3 3 C4.32 3.66 5.64 4.32 7 5 C6.67 6.32 6.34 7.64 6 9 C4.02 6.03 2.04 3.06 0 0 Z " fill="#D7D1D4" transform="translate(389,665)"/>
<path d="M0 0 C1.65 1.65 3.3 3.3 5 5 C4.67 5.99 4.34 6.98 4 8 C1 6 1 6 0.3125 2.875 C0.209375 1.92625 0.10625 0.9775 0 0 Z " fill="#280D17" transform="translate(383,658)"/>
<path d="M0 0 C0.99 0.33 1.98 0.66 3 1 C1.515 4.465 1.515 4.465 0 8 C-0.66 8 -1.32 8 -2 8 C-1.125 1.125 -1.125 1.125 0 0 Z " fill="#D3D0CE" transform="translate(590,624)"/>
<path d="M0 0 C2 3 2 3 1.625 5.6875 C1.41875 6.450625 1.2125 7.21375 1 8 C-0.32 8.33 -1.64 8.66 -3 9 C-2.01 6.03 -1.02 3.06 0 0 Z " fill="#C7C5C5" transform="translate(642,593)"/>
<path d="M0 0 C0.66 0.66 1.32 1.32 2 2 C0.68 4.97 -0.64 7.94 -2 11 C-3.31826804 7.04519588 -2.29536133 4.88608399 -1 1 C-0.67 0.67 -0.34 0.34 0 0 Z " fill="#D5D0D4" transform="translate(611,581)"/>
<path d="M0 0 C0.66 0 1.32 0 2 0 C3.42944945 2.35438733 4.08661261 3.48032433 3.625 6.25 C3.41875 6.8275 3.2125 7.405 3 8 C0.37613513 4.93882432 0 4.26826873 0 0 Z " fill="#2C1221" transform="translate(480,570)"/>
<path d="M0 0 C0.66 0.33 1.32 0.66 2 1 C0.515 4.465 0.515 4.465 -1 8 C-1.66 7.67 -2.32 7.34 -3 7 C-2.625 4.0625 -2.625 4.0625 -2 1 C-1.34 0.67 -0.68 0.34 0 0 Z " fill="#DBD9D9" transform="translate(616,571)"/>
<path d="M0 0 C1 3 1 3 0.22265625 5.04296875 C-0.16019531 5.75066406 -0.54304687 6.45835937 -0.9375 7.1875 C-1.31777344 7.90292969 -1.69804688 8.61835937 -2.08984375 9.35546875 C-2.54037109 10.16951172 -2.54037109 10.16951172 -3 11 C-3.83583327 8.62392051 -4.1842383 7.45550373 -3.22265625 5.078125 C-1.61132812 2.5390625 -1.61132812 2.5390625 0 0 Z " fill="#1C0F1B" transform="translate(576,557)"/>
<path d="M0 0 C0.66 0.33 1.32 0.66 2 1 C2 1.99 2 2.98 2 4 C-1 6.1875 -1 6.1875 -4 8 C-2.87548273 5.0280615 -1.77706209 2.66559313 0 0 Z " fill="#0F080C" transform="translate(702,528)"/>
<path d="M0 0 C0.66 0 1.32 0 2 0 C0.84414715 3.91211733 -0.35534962 6.8745041 -3 10 C-2.49287967 6.28111761 -1.88391785 3.26545761 0 0 Z " fill="#D9D6D7" transform="translate(644,512)"/>
<path d="M0 0 C0.66 0 1.32 0 2 0 C1.38461538 5.53846154 1.38461538 5.53846154 -0.5625 7.875 C-1.036875 8.24625 -1.51125 8.6175 -2 9 C-1.51421457 5.87709365 -1.0013988 3.00419641 0 0 Z " fill="#1C1319" transform="translate(708,514)"/>
<path d="M0 0 C0.99 0.33 1.98 0.66 3 1 C4.6875 4.5625 4.6875 4.5625 6 8 C5.01 8 4.02 8 3 8 C0 2.25 0 2.25 0 0 Z " fill="#270F1A" transform="translate(331,508)"/>
<path d="M0 0 C1.32 0 2.64 0 4 0 C3.1875 2.4375 3.1875 2.4375 2 5 C1.01 5.33 0.02 5.66 -1 6 C-0.67 4.02 -0.34 2.04 0 0 Z " fill="#EFEDEE" transform="translate(714,496)"/>
<path d="M0 0 C0.99 0 1.98 0 3 0 C3.33 2.64 3.66 5.28 4 8 C3.34 8 2.68 8 2 8 C0.23537317 4.91190305 0 3.76687864 0 0 Z " fill="#250F23" transform="translate(481,464)"/>
<path d="M0 0 C0.66 1.32 1.32 2.64 2 4 C1.54625 4.433125 1.0925 4.86625 0.625 5.3125 C-1.20024334 7.10798342 -1.20024334 7.10798342 -3 10 C-2.25 3.375 -2.25 3.375 0 0 Z " fill="#EAECF2" transform="translate(706,462)"/>
<path d="M0 0 C0.66 1.32 1.32 2.64 2 4 C0.625 7.75 0.625 7.75 -1 11 C-1.66 10.67 -2.32 10.34 -3 10 C-2.01 6.7 -1.02 3.4 0 0 Z " fill="#2B202A" transform="translate(735,450)"/>
<path d="M0 0 C3.60654039 2.40436026 3.85452932 3.94679607 5 8 C4.01 8.495 4.01 8.495 3 9 C3 8.34 3 7.68 3 7 C2.34 6.67 1.68 6.34 1 6 C0.375 2.9375 0.375 2.9375 0 0 Z " fill="#E0CDCD" transform="translate(263,368)"/>
<path d="M0 0 C0.99 0 1.98 0 3 0 C3.66 1.98 4.32 3.96 5 6 C2.525 5.01 2.525 5.01 0 4 C0 2.68 0 1.36 0 0 Z " fill="#442635" transform="translate(472,370)"/>
<path d="M0 0 C2.31 0 4.62 0 7 0 C5.02 0.99 5.02 0.99 3 2 C3.33 3.32 3.66 4.64 4 6 C3.01 6 2.02 6 1 6 C0.67 4.02 0.34 2.04 0 0 Z " fill="#522F37" transform="translate(420,262)"/>
<path d="M0 0 C0.99 1.32 1.98 2.64 3 4 C1.68 5.32 0.36 6.64 -1 8 C-1.125 2.25 -1.125 2.25 0 0 Z " fill="#C6C5CB" transform="translate(529,665)"/>
<path d="M0 0 C0.33 0 0.66 0 1 0 C0.67 2.31 0.34 4.62 0 7 C-0.99 7 -1.98 7 -3 7 C-1.125 1.125 -1.125 1.125 0 0 Z " fill="#D6D3D6" transform="translate(542,638)"/>
<path d="M0 0 C0.66 0.99 1.32 1.98 2 3 C1.01 4.98 0.02 6.96 -1 9 C-1.66 9 -2.32 9 -3 9 C-2.01 6.03 -1.02 3.06 0 0 Z " fill="#C7C5CC" transform="translate(554,609)"/>
<path d="M0 0 C0.66 0 1.32 0 2 0 C1.37240135 2.92879371 0.41377341 5.36095629 -1 8 C-1.66 8 -2.32 8 -3 8 C-1.125 2.25 -1.125 2.25 0 0 Z " fill="#271E2B" transform="translate(639,526)"/>
<path d="M0 0 C1 3 1 3 0.22265625 4.82421875 C-0.8515625 6.54947917 -1.92578125 8.27473958 -3 10 C-3.33 9.34 -3.66 8.68 -4 8 C-1.48571429 1.48571429 -1.48571429 1.48571429 0 0 Z " fill="#EBE6E6" transform="translate(706,516)"/>
<path d="M0 0 C0.33 0 0.66 0 1 0 C0.4140625 6.15234375 0.4140625 6.15234375 0 8 C-0.99 8.495 -0.99 8.495 -2 9 C-2.25 3.375 -2.25 3.375 0 0 Z " fill="#1A0F1B" transform="translate(575,480)"/>
<path d="M0 0 C0.99 0.33 1.98 0.66 3 1 C4.1875 4.5625 4.1875 4.5625 5 8 C2 7 2 7 0.8125 5.125 C0 3 0 3 0 0 Z " fill="#F3F1F6" transform="translate(437,473)"/>
<path d="M0 0 C1.43088528 2.86177057 0.59991697 4.93375773 0 8 C-0.99 8.33 -1.98 8.66 -3 9 C-2.25 2.25 -2.25 2.25 0 0 Z " fill="#1A0D1F" transform="translate(671,460)"/>
<path d="M0 0 C0.66 0.33 1.32 0.66 2 1 C1.34 3.31 0.68 5.62 0 8 C-0.66 7.67 -1.32 7.34 -2 7 C-1.34 4.69 -0.68 2.38 0 0 Z " fill="#D1CEC9" transform="translate(737,439)"/>
<path d="M0 0 C1.65 0 3.3 0 5 0 C4.625 2.4375 4.625 2.4375 4 5 C3.01 5.495 3.01 5.495 2 6 C1.34 4.02 0.68 2.04 0 0 Z " fill="#EBE4EB" transform="translate(504,433)"/>
<path d="M0 0 C0.99 0 1.98 0 3 0 C1.70700306 2.88437779 0.34058637 4.87219421 -2 7 C-1.125 1.125 -1.125 1.125 0 0 Z " fill="#F4F8FA" transform="translate(565,397)"/>
<path d="M0 0 C0.66 0 1.32 0 2 0 C2.66 1.98 3.32 3.96 4 6 C3.34 6.66 2.68 7.32 2 8 C0.23537317 4.91190305 0 3.76687864 0 0 Z " fill="#3D1E27" transform="translate(436,293)"/>
<path d="M0 0 C0.66 0 1.32 0 2 0 C1.01 2.97 0.02 5.94 -1 9 C-1.33 9 -1.66 9 -2 9 C-2.25 3.375 -2.25 3.375 0 0 Z " fill="#1D0815" transform="translate(757,278)"/>
<path d="M0 0 C-4.95 1.485 -4.95 1.485 -10 3 C-9.67 2.01 -9.34 1.02 -9 0 C-3.375 -1.125 -3.375 -1.125 0 0 Z " fill="#BDC2C2" transform="translate(534,721)"/>
<path d="M0 0 C2.31 0.66 4.62 1.32 7 2 C6.01 3.32 5.02 4.64 4 6 C0 1.125 0 1.125 0 0 Z " fill="#BCBBC1" transform="translate(395,674)"/>
<path d="M0 0 C0.66 0.33 1.32 0.66 2 1 C-0.75 6.875 -0.75 6.875 -3 8 C-2.45276317 4.62537285 -1.9451 2.91765 0 0 Z " fill="#18131F" transform="translate(574,668)"/>
<path d="M0 0 C3 1 3 1 4.6875 4.0625 C5.120625 5.031875 5.55375 6.00125 6 7 C5.34 7.66 4.68 8.32 4 9 C2.68 6.03 1.36 3.06 0 0 Z " fill="#301A2D" transform="translate(384,618)"/>
<path d="M0 0 C0.99 0.33 1.98 0.66 3 1 C1.02 3.97 1.02 3.97 -1 7 C-1.66 6.34 -2.32 5.68 -3 5 C-2.01 3.35 -1.02 1.7 0 0 Z " fill="#C7CCC5" transform="translate(629,621)"/>
<path d="M0 0 C0.144375 0.61875 0.28875 1.2375 0.4375 1.875 C0.93152225 4.03258322 0.93152225 4.03258322 2 6 C0.35 6.66 -1.3 7.32 -3 8 C-1.125 2.25 -1.125 2.25 0 0 Z " fill="#BDBBBA" transform="translate(634,610)"/>
<path d="M0 0 C1.9375 0.5625 1.9375 0.5625 4 2 C4.75 5.625 4.75 5.625 5 9 C2.67527795 6.14693203 1.2491742 3.45925163 0 0 Z " fill="#DAD5D8" transform="translate(417,614)"/>
<path d="M0 0 C2.15377564 2.62198774 3.40072174 4.64404172 4 8 C3.01 8.495 3.01 8.495 2 9 C0.14223235 5.86501708 -0.20140476 3.62528568 0 0 Z " fill="#2A1823" transform="translate(500,611)"/>
<path d="M0 0 C2.52259061 1.97420135 2.9929808 2.96745642 3.6875 6.1875 C3.790625 7.115625 3.89375 8.04375 4 9 C0 4.5 0 4.5 0 0 Z " fill="#2B0F21" transform="translate(460,525)"/>
<path d="M0 0 C2.32472205 2.85306797 3.7508258 5.54074837 5 9 C2 8 2 8 0 5 C-0.125 2.3125 -0.125 2.3125 0 0 Z " fill="#E3DEE5" transform="translate(496,499)"/>
<path d="M0 0 C0.99 0 1.98 0 3 0 C3.33 2.64 3.66 5.28 4 8 C1.84622436 5.37801226 0.59927826 3.35595828 0 0 Z " fill="#270F20" transform="translate(392,461)"/>
<path d="M0 0 C1 3 1 3 0.1875 5.625 C-1 8 -1 8 -3 9 C-2.5020163 5.26512223 -2.12508244 3.18762365 0 0 Z " fill="#1A1220" transform="translate(592,443)"/>
<path d="M0 0 C3.0916909 2.52956528 3.90931332 5.22454612 5 9 C2.5 7.3125 2.5 7.3125 0 5 C-0.3125 2.25 -0.3125 2.25 0 0 Z " fill="#F7F3F8" transform="translate(378,436)"/>
<path d="M0 0 C0.33 0.99 0.66 1.98 1 3 C-0.9375 6.1875 -0.9375 6.1875 -3 9 C-3.75 7.3125 -3.75 7.3125 -4 5 C-2.0625 2.25 -2.0625 2.25 0 0 Z " fill="#170718" transform="translate(523,407)"/>
<path d="M0 0 C2.89932357 2.39509338 3.50168276 4.31245243 4 8 C3.34 8 2.68 8 2 8 C0.23537317 4.91190305 0 3.76687864 0 0 Z " fill="#270F1E" transform="translate(482,390)"/>
<path d="M0 0 C0.66 0.33 1.32 0.66 2 1 C2 1.66 2 2.32 2 3 C1.34 3 0.68 3 0 3 C0 4.65 0 6.3 0 8 C-0.66 8 -1.32 8 -2 8 C-2.125 5.125 -2.125 5.125 -2 2 C-1.34 1.34 -0.68 0.68 0 0 Z " fill="#190B1B" transform="translate(713,369)"/>
<path d="M0 0 C0.66 0 1.32 0 2 0 C1.75 2.375 1.75 2.375 1 5 C-1.0625 6.3125 -1.0625 6.3125 -3 7 C-1.125 2.25 -1.125 2.25 0 0 Z " fill="#100A15" transform="translate(675,340)"/>
<path d="M0 0 C0.66 0 1.32 0 2 0 C1.67 2.31 1.34 4.62 1 7 C0.01 7.33 -0.98 7.66 -2 8 C-1.47731534 5.23723823 -0.89130413 2.6739124 0 0 Z " fill="#1B0E17" transform="translate(734,323)"/>
<path d="M0 0 C2.11180592 2.57089417 3.66306057 4.63060567 4 8 C3.34 8.66 2.68 9.32 2 10 C0.68373308 6.38026598 0 3.90432869 0 0 Z " fill="#40232D" transform="translate(446,313)"/>
<path d="M0 0 C0.66 0.66 1.32 1.32 2 2 C1.01 4.31 0.02 6.62 -1 9 C-1.33 9 -1.66 9 -2 9 C-2.25 3.375 -2.25 3.375 0 0 Z " fill="#31252C" transform="translate(695,298)"/>
<path d="M0 0 C0.66 0 1.32 0 2 0 C2 0.99 2 1.98 2 3 C2.66 3 3.32 3 4 3 C4.625 4.875 4.625 4.875 5 7 C4.34 7.66 3.68 8.32 3 9 C2.01 6.03 1.02 3.06 0 0 Z " fill="#411C30" transform="translate(487,296)"/>
</svg>
